<?xml version="1.0" encoding="utf-8"?>
<!-- Garden Gnome Software - Skin Buttons -->
<!DOCTYPE svg PUBLIC "-//W3C//DTD SVG 1.1 Basic//EN" "http://www.w3.org/Graphics/SVG/1.1/DTD/svg11-basic.dtd">
<svg version="1.1" baseProfile="basic" id="Layer_1" xmlns="http://www.w3.org/2000/svg" xmlns:xlink="http://www.w3.org/1999/xlink"
			x="0px" y="0px" width="32px" height="32px" viewBox="0 0 32 32" xml:space="preserve">
	<g opacity="0.4" stroke="#3C3C3C" stroke-width="1.5" transform="translate(16,16) scale(1.1) translate(-16,-16)">
	<path d="M28.149,7.034c-0.223-0.223-0.531-0.351-0.846-0.351H4.697c-0.315,0-0.624,0.128-0.846,0.351
		S3.5,7.565,3.5,7.88v16.24c0,0.315,0.128,0.623,0.351,0.846c0.223,0.224,0.531,0.351,0.846,0.351h22.607
		c0.319,0,0.62-0.124,0.846-0.351c0.227-0.226,0.351-0.526,0.351-0.846V7.88C28.5,7.565,28.372,7.257,28.149,7.034z M5.893,22.924
		V9.076h20.215v13.848H5.893z M16,19.24c-0.661,0-1.197,0.535-1.197,1.196v0.448c0,0.661,0.536,1.196,1.197,1.196
		c0.66,0,1.196-0.535,1.196-1.196v-0.448C17.196,19.775,16.661,19.24,16,19.24z M11.67,14.804h-0.342
		c-0.661,0-1.197,0.535-1.197,1.196c0,0.661,0.536,1.196,1.197,1.196h0.342c0.661,0,1.196-0.535,1.196-1.196
		C12.866,15.339,12.331,14.804,11.67,14.804z M8.195,14.804H7.854c-0.661,0-1.197,0.535-1.197,1.196
		c0,0.661,0.536,1.196,1.197,1.196h0.341c0.66,0,1.196-0.535,1.196-1.196C9.392,15.339,8.855,14.804,8.195,14.804z M18.287,13.412
		l-0.222,0.148c-0.427,0.285-0.541,0.863-0.256,1.29c0.18,0.269,0.474,0.414,0.774,0.414c0.178,0,0.357-0.05,0.517-0.157
		l0.221-0.148c0.428-0.285,0.542-0.863,0.257-1.29C19.293,13.242,18.715,13.126,18.287,13.412z M23.813,9.72l-0.222,0.147
		c-0.427,0.286-0.542,0.864-0.256,1.291c0.179,0.269,0.474,0.414,0.774,0.414c0.178,0,0.357-0.05,0.517-0.157l0.221-0.148
		c0.427-0.285,0.542-0.863,0.256-1.291C24.818,9.549,24.241,9.434,23.813,9.72z M16,14.804h-1.196c-0.661,0-1.196,0.536-1.196,1.196
		c0,0.66,0.535,1.196,1.196,1.196c0,0.661,0.535,1.196,1.196,1.196c0.66,0,1.196-0.535,1.196-1.196V16
		c0-0.315-0.128-0.623-0.35-0.846C16.623,14.931,16.314,14.804,16,14.804z M21.05,11.565l-0.221,0.148
		c-0.427,0.286-0.542,0.863-0.257,1.291c0.18,0.268,0.475,0.413,0.774,0.413c0.178,0,0.357-0.051,0.517-0.157l0.221-0.148
		c0.428-0.286,0.542-0.863,0.257-1.291S21.478,11.28,21.05,11.565z"/>
	</g>
	<g fill="#FFFFFF" stroke="#000000" stroke-width="0.2" transform="translate(16,16) scale(1.1) translate(-16,-16)">
	<path d="M28.149,7.034c-0.223-0.223-0.531-0.351-0.846-0.351H4.697c-0.315,0-0.624,0.128-0.846,0.351
		S3.5,7.565,3.5,7.88v16.24c0,0.315,0.128,0.623,0.351,0.846c0.223,0.224,0.531,0.351,0.846,0.351h22.607
		c0.319,0,0.62-0.124,0.846-0.351c0.227-0.226,0.351-0.526,0.351-0.846V7.88C28.5,7.565,28.372,7.257,28.149,7.034z M5.893,22.924
		V9.076h20.215v13.848H5.893z M16,19.24c-0.661,0-1.197,0.535-1.197,1.196v0.448c0,0.661,0.536,1.196,1.197,1.196
		c0.66,0,1.196-0.535,1.196-1.196v-0.448C17.196,19.775,16.661,19.24,16,19.24z M11.67,14.804h-0.342
		c-0.661,0-1.197,0.535-1.197,1.196c0,0.661,0.536,1.196,1.197,1.196h0.342c0.661,0,1.196-0.535,1.196-1.196
		C12.866,15.339,12.331,14.804,11.67,14.804z M8.195,14.804H7.854c-0.661,0-1.197,0.535-1.197,1.196
		c0,0.661,0.536,1.196,1.197,1.196h0.341c0.66,0,1.196-0.535,1.196-1.196C9.392,15.339,8.855,14.804,8.195,14.804z M18.287,13.412
		l-0.222,0.148c-0.427,0.285-0.541,0.863-0.256,1.29c0.18,0.269,0.474,0.414,0.774,0.414c0.178,0,0.357-0.05,0.517-0.157
		l0.221-0.148c0.428-0.285,0.542-0.863,0.257-1.29C19.293,13.242,18.715,13.126,18.287,13.412z M23.813,9.72l-0.222,0.147
		c-0.427,0.286-0.542,0.864-0.256,1.291c0.179,0.269,0.474,0.414,0.774,0.414c0.178,0,0.357-0.05,0.517-0.157l0.221-0.148
		c0.427-0.285,0.542-0.863,0.256-1.291C24.818,9.549,24.241,9.434,23.813,9.72z M16,14.804h-1.196c-0.661,0-1.196,0.536-1.196,1.196
		c0,0.66,0.535,1.196,1.196,1.196c0,0.661,0.535,1.196,1.196,1.196c0.66,0,1.196-0.535,1.196-1.196V16
		c0-0.315-0.128-0.623-0.35-0.846C16.623,14.931,16.314,14.804,16,14.804z M21.05,11.565l-0.221,0.148
		c-0.427,0.286-0.542,0.863-0.257,1.291c0.18,0.268,0.475,0.413,0.774,0.413c0.178,0,0.357-0.051,0.517-0.157l0.221-0.148
		c0.428-0.286,0.542-0.863,0.257-1.291S21.478,11.28,21.05,11.565z"/>
	</g>
</svg>