<?xml version="1.0" encoding="utf-8"?>
<!-- Garden Gnome Software - Skin Buttons -->
<!DOCTYPE svg PUBLIC "-//W3C//DTD SVG 1.1 Basic//EN" "http://www.w3.org/Graphics/SVG/1.1/DTD/svg11-basic.dtd">
<svg version="1.1" baseProfile="basic" id="Layer_1" xmlns="http://www.w3.org/2000/svg" xmlns:xlink="http://www.w3.org/1999/xlink"
			x="0px" y="0px" width="32px" height="32px" viewBox="0 0 32 32" xml:space="preserve">
	<g opacity="0.4" stroke="#3C3C3C" stroke-width="1.5">
		<g>
			<path d="M3.5,16c0-6.904,5.596-12.5,12.5-12.5l0,0c6.904,0,12.499,5.596,12.5,12.5l0,0
				c-0.001,6.904-5.596,12.499-12.5,12.5l0,0C9.096,28.499,3.5,22.904,3.5,16L3.5,16z M8.853,8.854
				c-1.831,1.833-2.96,4.352-2.96,7.147l0,0c0,2.794,1.129,5.314,2.96,7.147l0,0c1.832,1.83,4.352,2.96,7.147,2.96l0,0
				c2.795,0,5.314-1.13,7.147-2.96l0,0c1.831-1.833,2.959-4.353,2.96-7.147l0,0c-0.001-2.795-1.129-5.314-2.96-7.147l0,0
				c-1.833-1.832-4.353-2.96-7.147-2.96l0,0C13.205,5.894,10.686,7.022,8.853,8.854L8.853,8.854z"/>
		</g>
		<path d="M18.07,20.001c-0.174-0.638,0.203-1.295,0.841-1.469l0,0c1.134-0.306,2.055-0.789,2.633-1.305l0,0
			c0.584-0.526,0.797-1.008,0.798-1.444l0,0c-0.002-0.31-0.102-0.617-0.359-0.97l0,0c-0.256-0.35-0.678-0.721-1.247-1.045l0,0
			c-1.137-0.656-2.84-1.11-4.735-1.106l0,0c-1.422-0.001-2.735,0.25-3.783,0.657l0,0c-1.051,0.402-1.819,0.969-2.201,1.495l0,0
			c-0.257,0.354-0.356,0.661-0.358,0.97l0,0c0.001,0.288,0.087,0.571,0.306,0.895l0,0c0.217,0.321,0.575,0.666,1.065,0.978l0,0
			h0.001c0.557,0.356,0.72,1.096,0.364,1.652l0,0c-0.355,0.557-1.095,0.72-1.652,0.364l0,0c-0.706-0.451-1.31-0.994-1.755-1.646l0,0
			c-0.444-0.647-0.723-1.423-0.722-2.243l0,0c-0.001-0.883,0.321-1.712,0.827-2.392l0,0c0.507-0.684,1.188-1.244,1.983-1.7l0,0
			c1.592-0.907,3.657-1.419,5.925-1.423l0,0c1.7,0,3.288,0.293,4.646,0.818l0,0c1.355,0.529,2.498,1.281,3.261,2.305l0,0
			c0.506,0.68,0.829,1.508,0.826,2.392l0,0c0.001,1.288-0.668,2.413-1.602,3.233l0,0c-0.942,0.832-2.178,1.438-3.594,1.825l0,0
			c-0.104,0.028-0.211,0.042-0.314,0.042l0,0C18.696,20.884,18.214,20.533,18.07,20.001L18.07,20.001z"/>
		<path d="M16.396,23.621l-3.373-3.039c-0.251-0.226-0.396-0.551-0.396-0.889l0,0c0-0.337,0.146-0.663,0.396-0.889
			l0,0l3.374-3.039c0.491-0.442,1.247-0.403,1.689,0.088l0,0c0.442,0.491,0.402,1.247-0.088,1.689l0,0l-2.386,2.15l2.386,2.149
			c0.49,0.442,0.53,1.199,0.088,1.69l0,0c-0.236,0.262-0.562,0.395-0.89,0.395l0,0C16.912,23.928,16.625,23.826,16.396,23.621
			L16.396,23.621z"/>
	</g>
	<g fill="#FFFFFF" stroke="#000000" stroke-width="0.2">
		<g>
			<path d="M3.5,16c0-6.904,5.596-12.5,12.5-12.5l0,0c6.904,0,12.499,5.596,12.5,12.5l0,0
				c-0.001,6.904-5.596,12.499-12.5,12.5l0,0C9.096,28.499,3.5,22.904,3.5,16L3.5,16z M8.853,8.854
				c-1.831,1.833-2.96,4.352-2.96,7.147l0,0c0,2.794,1.129,5.314,2.96,7.147l0,0c1.832,1.83,4.352,2.96,7.147,2.96l0,0
				c2.795,0,5.314-1.13,7.147-2.96l0,0c1.831-1.833,2.959-4.353,2.96-7.147l0,0c-0.001-2.795-1.129-5.314-2.96-7.147l0,0
				c-1.833-1.832-4.353-2.96-7.147-2.96l0,0C13.205,5.894,10.686,7.022,8.853,8.854L8.853,8.854z"/>
		</g>
		<path d="M18.07,20.001c-0.174-0.638,0.203-1.295,0.841-1.469l0,0c1.134-0.306,2.055-0.789,2.633-1.305l0,0
			c0.584-0.526,0.797-1.008,0.798-1.444l0,0c-0.002-0.31-0.102-0.617-0.359-0.97l0,0c-0.256-0.35-0.678-0.721-1.247-1.045l0,0
			c-1.137-0.656-2.84-1.11-4.735-1.106l0,0c-1.422-0.001-2.735,0.25-3.783,0.657l0,0c-1.051,0.402-1.819,0.969-2.201,1.495l0,0
			c-0.257,0.354-0.356,0.661-0.358,0.97l0,0c0.001,0.288,0.087,0.571,0.306,0.895l0,0c0.217,0.321,0.575,0.666,1.065,0.978l0,0
			h0.001c0.557,0.356,0.72,1.096,0.364,1.652l0,0c-0.355,0.557-1.095,0.72-1.652,0.364l0,0c-0.706-0.451-1.31-0.994-1.755-1.646l0,0
			c-0.444-0.647-0.723-1.423-0.722-2.243l0,0c-0.001-0.883,0.321-1.712,0.827-2.392l0,0c0.507-0.684,1.188-1.244,1.983-1.7l0,0
			c1.592-0.907,3.657-1.419,5.925-1.423l0,0c1.7,0,3.288,0.293,4.646,0.818l0,0c1.355,0.529,2.498,1.281,3.261,2.305l0,0
			c0.506,0.68,0.829,1.508,0.826,2.392l0,0c0.001,1.288-0.668,2.413-1.602,3.233l0,0c-0.942,0.832-2.178,1.438-3.594,1.825l0,0
			c-0.104,0.028-0.211,0.042-0.314,0.042l0,0C18.696,20.884,18.214,20.533,18.07,20.001L18.07,20.001z"/>
		<path d="M16.396,23.621l-3.373-3.039c-0.251-0.226-0.396-0.551-0.396-0.889l0,0c0-0.337,0.146-0.663,0.396-0.889
			l0,0l3.374-3.039c0.491-0.442,1.247-0.403,1.689,0.088l0,0c0.442,0.491,0.402,1.247-0.088,1.689l0,0l-2.386,2.15l2.386,2.149
			c0.49,0.442,0.53,1.199,0.088,1.69l0,0c-0.236,0.262-0.562,0.395-0.89,0.395l0,0C16.912,23.928,16.625,23.826,16.396,23.621
			L16.396,23.621z"/>
	</g>
</svg>