<?xml version="1.0" encoding="utf-8"?>
<!-- Garden Gnome Software - Skin Buttons -->
<!DOCTYPE svg PUBLIC "-//W3C//DTD SVG 1.1 Basic//EN" "http://www.w3.org/Graphics/SVG/1.1/DTD/svg11-basic.dtd">
<svg version="1.1" baseProfile="basic" id="Layer_1" xmlns="http://www.w3.org/2000/svg" xmlns:xlink="http://www.w3.org/1999/xlink"
			x="0px" y="0px" width="32px" height="32px" viewBox="0 0 32 32" xml:space="preserve">
	<g opacity="0.4" stroke="#3C3C3C" stroke-width="1.5">
	<path d="M16,3.5C9.096,3.5,3.5,9.096,3.5,16c0,6.904,5.596,12.5,12.5,12.5c6.903,0,12.499-5.596,12.5-12.5
		C28.498,9.096,22.903,3.5,16,3.5z M23.146,23.147c-1.833,1.831-4.352,2.959-7.146,2.961c-2.796-0.002-5.315-1.13-7.147-2.961
		C7.021,21.314,5.893,18.795,5.892,16c0.001-2.795,1.13-5.314,2.961-7.147c1.833-1.831,4.352-2.959,7.147-2.96
		c2.795,0.001,5.313,1.13,7.146,2.96c1.831,1.833,2.96,4.352,2.96,7.147S24.978,21.314,23.146,23.147z M23.907,13.392
		c-0.763-1.024-1.906-1.776-3.262-2.305C19.287,10.562,17.7,10.27,16,10.269c-2.268,0.003-4.333,0.516-5.925,1.424
		c-0.795,0.456-1.477,1.016-1.983,1.7c-0.505,0.68-0.828,1.508-0.826,2.392c-0.002,0.819,0.276,1.595,0.722,2.243
		c0.445,0.651,1.049,1.194,1.755,1.646c0.199,0.128,0.423,0.188,0.643,0.188c0.395,0,0.781-0.195,1.009-0.553
		c0.356-0.557,0.193-1.296-0.363-1.651l-0.001-0.001c-0.49-0.312-0.848-0.655-1.065-0.977c-0.218-0.324-0.304-0.608-0.306-0.896
		c0.002-0.31,0.102-0.617,0.358-0.971c0.381-0.525,1.15-1.092,2.2-1.495c1.048-0.406,2.361-0.658,3.783-0.657
		c1.895-0.003,3.599,0.451,4.734,1.107c0.569,0.325,0.992,0.696,1.248,1.045c0.258,0.354,0.356,0.661,0.358,0.971
		c0.005,0.503-0.305,1.105-1.135,1.712c-0.536,0.387-0.656,1.135-0.271,1.671c0.387,0.535,1.135,0.656,1.671,0.271
		c1.212-0.867,2.123-2.13,2.127-3.653C24.735,14.9,24.412,14.072,23.907,13.392z M19.364,16.182c-0.468-0.467-1.226-0.467-1.692,0
		l-1.557,1.558l-1.558-1.558c-0.467-0.467-1.224-0.467-1.691,0c-0.467,0.467-0.467,1.225,0,1.692l1.557,1.557l-1.557,1.557
		c-0.467,0.468-0.467,1.226,0,1.692c0.233,0.233,0.54,0.351,0.846,0.351c0.307,0,0.612-0.117,0.846-0.351l1.558-1.558l1.557,1.558
		c0.233,0.233,0.54,0.351,0.846,0.351c0.307,0,0.612-0.117,0.847-0.351c0.467-0.467,0.467-1.225,0-1.692l-1.558-1.557l1.558-1.557
		C19.831,17.406,19.831,16.648,19.364,16.182z"/>
	</g>
	<g fill="#FFFFFF" stroke="#000000" stroke-width="0.2">
	<path d="M16,3.5C9.096,3.5,3.5,9.096,3.5,16c0,6.904,5.596,12.5,12.5,12.5c6.903,0,12.499-5.596,12.5-12.5
		C28.498,9.096,22.903,3.5,16,3.5z M23.146,23.147c-1.833,1.831-4.352,2.959-7.146,2.961c-2.796-0.002-5.315-1.13-7.147-2.961
		C7.021,21.314,5.893,18.795,5.892,16c0.001-2.795,1.13-5.314,2.961-7.147c1.833-1.831,4.352-2.959,7.147-2.96
		c2.795,0.001,5.313,1.13,7.146,2.96c1.831,1.833,2.96,4.352,2.96,7.147S24.978,21.314,23.146,23.147z M23.907,13.392
		c-0.763-1.024-1.906-1.776-3.262-2.305C19.287,10.562,17.7,10.27,16,10.269c-2.268,0.003-4.333,0.516-5.925,1.424
		c-0.795,0.456-1.477,1.016-1.983,1.7c-0.505,0.68-0.828,1.508-0.826,2.392c-0.002,0.819,0.276,1.595,0.722,2.243
		c0.445,0.651,1.049,1.194,1.755,1.646c0.199,0.128,0.423,0.188,0.643,0.188c0.395,0,0.781-0.195,1.009-0.553
		c0.356-0.557,0.193-1.296-0.363-1.651l-0.001-0.001c-0.49-0.312-0.848-0.655-1.065-0.977c-0.218-0.324-0.304-0.608-0.306-0.896
		c0.002-0.31,0.102-0.617,0.358-0.971c0.381-0.525,1.15-1.092,2.2-1.495c1.048-0.406,2.361-0.658,3.783-0.657
		c1.895-0.003,3.599,0.451,4.734,1.107c0.569,0.325,0.992,0.696,1.248,1.045c0.258,0.354,0.356,0.661,0.358,0.971
		c0.005,0.503-0.305,1.105-1.135,1.712c-0.536,0.387-0.656,1.135-0.271,1.671c0.387,0.535,1.135,0.656,1.671,0.271
		c1.212-0.867,2.123-2.13,2.127-3.653C24.735,14.9,24.412,14.072,23.907,13.392z M19.364,16.182c-0.468-0.467-1.226-0.467-1.692,0
		l-1.557,1.558l-1.558-1.558c-0.467-0.467-1.224-0.467-1.691,0c-0.467,0.467-0.467,1.225,0,1.692l1.557,1.557l-1.557,1.557
		c-0.467,0.468-0.467,1.226,0,1.692c0.233,0.233,0.54,0.351,0.846,0.351c0.307,0,0.612-0.117,0.846-0.351l1.558-1.558l1.557,1.558
		c0.233,0.233,0.54,0.351,0.846,0.351c0.307,0,0.612-0.117,0.847-0.351c0.467-0.467,0.467-1.225,0-1.692l-1.558-1.557l1.558-1.557
		C19.831,17.406,19.831,16.648,19.364,16.182z"/>
	</g>
</svg>