<?xml version="1.0" encoding="utf-8"?>
<!-- Garden Gnome Software - Skin Buttons -->
<!DOCTYPE svg PUBLIC "-//W3C//DTD SVG 1.1 Basic//EN" "http://www.w3.org/Graphics/SVG/1.1/DTD/svg11-basic.dtd">
<svg version="1.1" baseProfile="basic" id="Layer_1" xmlns="http://www.w3.org/2000/svg" xmlns:xlink="http://www.w3.org/1999/xlink"
			x="0px" y="0px" width="32px" height="32px" viewBox="0 0 32 32" xml:space="preserve">
	<g opacity="0.4" stroke="#3C3C3C" stroke-width="1.5">
	<path d="M16,14.804H4.697c-0.315,0-0.624,0.128-0.846,0.351C3.627,15.377,3.5,15.686,3.5,16v8.12
		c0,0.315,0.127,0.624,0.35,0.846c0.223,0.224,0.531,0.351,0.846,0.351H16c0.32,0,0.62-0.124,0.846-0.351
		c0.226-0.226,0.35-0.525,0.35-0.846V16c0-0.314-0.128-0.623-0.35-0.846C16.623,14.932,16.314,14.804,16,14.804z M14.804,22.924
		H5.893v-5.728h8.911V22.924z M4.697,13.998c0.661,0,1.196-0.536,1.196-1.196v-0.308c0-0.66-0.536-1.195-1.196-1.195
		c-0.661,0-1.196,0.535-1.196,1.195v0.308C3.5,13.462,4.036,13.998,4.697,13.998z M4.697,10.477c0.661,0,1.197-0.536,1.197-1.197h0
		V9.076c0.661,0,1.196-0.535,1.196-1.196c0-0.66-0.536-1.196-1.196-1.196H4.697c-0.315,0-0.623,0.127-0.846,0.35
		C3.628,7.257,3.5,7.564,3.5,7.88v1.399C3.5,9.94,4.036,10.477,4.697,10.477z M19.289,9.076h0.242c0.661,0,1.196-0.536,1.196-1.196
		s-0.535-1.196-1.196-1.196h-0.242c-0.661,0-1.197,0.536-1.197,1.196S18.628,9.076,19.289,9.076z M16.122,6.684h-0.243
		c-0.661,0-1.196,0.536-1.196,1.196s0.536,1.196,1.196,1.196h0.243c0.661,0,1.197-0.536,1.197-1.196S16.782,6.684,16.122,6.684z
		 M22.698,9.076h0.243c0.66,0,1.196-0.536,1.196-1.196s-0.536-1.196-1.196-1.196h-0.243c-0.66,0-1.196,0.536-1.196,1.196
		S22.038,9.076,22.698,9.076z M9.06,9.076h0.242c0.66,0,1.196-0.536,1.196-1.196S9.962,6.684,9.302,6.684H9.06
		c-0.661,0-1.197,0.536-1.197,1.196S8.399,9.076,9.06,9.076z M12.469,9.076h0.243c0.661,0,1.196-0.536,1.196-1.196
		s-0.536-1.196-1.196-1.196h-0.243c-0.661,0-1.196,0.536-1.196,1.196S11.808,9.076,12.469,9.076z M27.304,11.111
		c-0.661,0-1.196,0.535-1.196,1.196v0.308c0,0.66,0.535,1.196,1.196,1.196c0.66,0,1.196-0.536,1.196-1.196v-0.308
		C28.5,11.646,27.964,11.111,27.304,11.111z M27.304,14.65c-0.661,0-1.196,0.535-1.196,1.196v0.308c0,0.66,0.535,1.196,1.196,1.196
		c0.66,0,1.196-0.536,1.196-1.196v-0.308C28.5,15.186,27.964,14.65,27.304,14.65z M27.304,21.728c-0.661,0-1.196,0.535-1.196,1.196
		h-0.234c-0.66,0-1.196,0.536-1.196,1.196c0,0.661,0.536,1.196,1.196,1.196h1.431c0.314,0,0.623-0.128,0.846-0.351
		s0.351-0.53,0.351-0.846v-1.196C28.5,22.264,27.964,21.728,27.304,21.728z M27.304,18.189c-0.661,0-1.196,0.536-1.196,1.196v0.308
		c0,0.66,0.535,1.196,1.196,1.196c0.66,0,1.196-0.536,1.196-1.196v-0.308C28.5,18.726,27.964,18.189,27.304,18.189z M28.149,7.033
		c-0.223-0.222-0.531-0.35-0.846-0.35h-1.196c-0.661,0-1.196,0.536-1.196,1.196c0,0.661,0.535,1.196,1.196,1.196
		c0,0.661,0.535,1.196,1.196,1.196c0.66,0,1.196-0.535,1.196-1.196V7.88C28.5,7.564,28.372,7.257,28.149,7.033z M21.863,13.261
		l0.221-0.147c0.428-0.285,0.542-0.863,0.257-1.291c-0.286-0.428-0.863-0.542-1.291-0.256l-0.221,0.146
		c-0.427,0.286-0.542,0.863-0.257,1.291c0.18,0.269,0.474,0.414,0.774,0.414C21.524,13.418,21.704,13.367,21.863,13.261z
		 M19.329,22.924h-0.242c-0.661,0-1.196,0.536-1.196,1.196c0,0.661,0.535,1.196,1.196,1.196h0.242c0.661,0,1.196-0.535,1.196-1.196
		C20.525,23.46,19.99,22.924,19.329,22.924z M18.584,15.264c0.178,0,0.357-0.051,0.517-0.157l0.221-0.147
		c0.428-0.285,0.542-0.863,0.257-1.29c-0.285-0.428-0.863-0.542-1.291-0.257l-0.222,0.147c-0.427,0.286-0.542,0.863-0.256,1.291
		C17.989,15.119,18.283,15.264,18.584,15.264z M22.739,22.924h-0.242c-0.661,0-1.196,0.536-1.196,1.196
		c0,0.661,0.535,1.196,1.196,1.196h0.242c0.66,0,1.196-0.535,1.196-1.196C23.936,23.46,23.399,22.924,22.739,22.924z M25.104,9.976
		c-0.285-0.427-0.863-0.542-1.291-0.256l-0.221,0.147c-0.428,0.285-0.542,0.863-0.256,1.29c0.179,0.269,0.474,0.414,0.774,0.414
		c0.178,0,0.357-0.051,0.516-0.156l0.222-0.148C25.274,10.981,25.389,10.403,25.104,9.976z"/>
	</g>
	<g fill="#FFFFFF" stroke="#000000" stroke-width="0.2">
	<path d="M16,14.804H4.697c-0.315,0-0.624,0.128-0.846,0.351C3.627,15.377,3.5,15.686,3.5,16v8.12
		c0,0.315,0.127,0.624,0.35,0.846c0.223,0.224,0.531,0.351,0.846,0.351H16c0.32,0,0.62-0.124,0.846-0.351
		c0.226-0.226,0.35-0.525,0.35-0.846V16c0-0.314-0.128-0.623-0.35-0.846C16.623,14.932,16.314,14.804,16,14.804z M14.804,22.924
		H5.893v-5.728h8.911V22.924z M4.697,13.998c0.661,0,1.196-0.536,1.196-1.196v-0.308c0-0.66-0.536-1.195-1.196-1.195
		c-0.661,0-1.196,0.535-1.196,1.195v0.308C3.5,13.462,4.036,13.998,4.697,13.998z M4.697,10.477c0.661,0,1.197-0.536,1.197-1.197h0
		V9.076c0.661,0,1.196-0.535,1.196-1.196c0-0.66-0.536-1.196-1.196-1.196H4.697c-0.315,0-0.623,0.127-0.846,0.35
		C3.628,7.257,3.5,7.564,3.5,7.88v1.399C3.5,9.94,4.036,10.477,4.697,10.477z M19.289,9.076h0.242c0.661,0,1.196-0.536,1.196-1.196
		s-0.535-1.196-1.196-1.196h-0.242c-0.661,0-1.197,0.536-1.197,1.196S18.628,9.076,19.289,9.076z M16.122,6.684h-0.243
		c-0.661,0-1.196,0.536-1.196,1.196s0.536,1.196,1.196,1.196h0.243c0.661,0,1.197-0.536,1.197-1.196S16.782,6.684,16.122,6.684z
		 M22.698,9.076h0.243c0.66,0,1.196-0.536,1.196-1.196s-0.536-1.196-1.196-1.196h-0.243c-0.66,0-1.196,0.536-1.196,1.196
		S22.038,9.076,22.698,9.076z M9.06,9.076h0.242c0.66,0,1.196-0.536,1.196-1.196S9.962,6.684,9.302,6.684H9.06
		c-0.661,0-1.197,0.536-1.197,1.196S8.399,9.076,9.06,9.076z M12.469,9.076h0.243c0.661,0,1.196-0.536,1.196-1.196
		s-0.536-1.196-1.196-1.196h-0.243c-0.661,0-1.196,0.536-1.196,1.196S11.808,9.076,12.469,9.076z M27.304,11.111
		c-0.661,0-1.196,0.535-1.196,1.196v0.308c0,0.66,0.535,1.196,1.196,1.196c0.66,0,1.196-0.536,1.196-1.196v-0.308
		C28.5,11.646,27.964,11.111,27.304,11.111z M27.304,14.65c-0.661,0-1.196,0.535-1.196,1.196v0.308c0,0.66,0.535,1.196,1.196,1.196
		c0.66,0,1.196-0.536,1.196-1.196v-0.308C28.5,15.186,27.964,14.65,27.304,14.65z M27.304,21.728c-0.661,0-1.196,0.535-1.196,1.196
		h-0.234c-0.66,0-1.196,0.536-1.196,1.196c0,0.661,0.536,1.196,1.196,1.196h1.431c0.314,0,0.623-0.128,0.846-0.351
		s0.351-0.53,0.351-0.846v-1.196C28.5,22.264,27.964,21.728,27.304,21.728z M27.304,18.189c-0.661,0-1.196,0.536-1.196,1.196v0.308
		c0,0.66,0.535,1.196,1.196,1.196c0.66,0,1.196-0.536,1.196-1.196v-0.308C28.5,18.726,27.964,18.189,27.304,18.189z M28.149,7.033
		c-0.223-0.222-0.531-0.35-0.846-0.35h-1.196c-0.661,0-1.196,0.536-1.196,1.196c0,0.661,0.535,1.196,1.196,1.196
		c0,0.661,0.535,1.196,1.196,1.196c0.66,0,1.196-0.535,1.196-1.196V7.88C28.5,7.564,28.372,7.257,28.149,7.033z M21.863,13.261
		l0.221-0.147c0.428-0.285,0.542-0.863,0.257-1.291c-0.286-0.428-0.863-0.542-1.291-0.256l-0.221,0.146
		c-0.427,0.286-0.542,0.863-0.257,1.291c0.18,0.269,0.474,0.414,0.774,0.414C21.524,13.418,21.704,13.367,21.863,13.261z
		 M19.329,22.924h-0.242c-0.661,0-1.196,0.536-1.196,1.196c0,0.661,0.535,1.196,1.196,1.196h0.242c0.661,0,1.196-0.535,1.196-1.196
		C20.525,23.46,19.99,22.924,19.329,22.924z M18.584,15.264c0.178,0,0.357-0.051,0.517-0.157l0.221-0.147
		c0.428-0.285,0.542-0.863,0.257-1.29c-0.285-0.428-0.863-0.542-1.291-0.257l-0.222,0.147c-0.427,0.286-0.542,0.863-0.256,1.291
		C17.989,15.119,18.283,15.264,18.584,15.264z M22.739,22.924h-0.242c-0.661,0-1.196,0.536-1.196,1.196
		c0,0.661,0.535,1.196,1.196,1.196h0.242c0.66,0,1.196-0.535,1.196-1.196C23.936,23.46,23.399,22.924,22.739,22.924z M25.104,9.976
		c-0.285-0.427-0.863-0.542-1.291-0.256l-0.221,0.147c-0.428,0.285-0.542,0.863-0.256,1.29c0.179,0.269,0.474,0.414,0.774,0.414
		c0.178,0,0.357-0.051,0.516-0.156l0.222-0.148C25.274,10.981,25.389,10.403,25.104,9.976z"/>
	</g>
</svg>