<?xml version="1.0" encoding="utf-8"?>
<!-- Generator: Adobe Illustrator 16.0.0, SVG Export Plug-In . SVG Version: 6.00 Build 0)  -->
<!DOCTYPE svg PUBLIC "-//W3C//DTD SVG 1.1//EN" "http://www.w3.org/Graphics/SVG/1.1/DTD/svg11.dtd" [
	<!ENTITY ns_flows "http://ns.adobe.com/Flows/1.0/">
	<!ENTITY ns_extend "http://ns.adobe.com/Extensibility/1.0/">
	<!ENTITY ns_ai "http://ns.adobe.com/AdobeIllustrator/10.0/">
	<!ENTITY ns_graphs "http://ns.adobe.com/Graphs/1.0/">
]>
<svg version="1.1" xmlns:x="&ns_extend;" xmlns:i="&ns_ai;" xmlns:graph="&ns_graphs;"
	 xmlns="http://www.w3.org/2000/svg" xmlns:xlink="http://www.w3.org/1999/xlink" xmlns:a="http://ns.adobe.com/AdobeSVGViewerExtensions/3.0/"
	 x="0px" y="0px" width="32px" height="32px" viewBox="-3722 -2606 32 32" enable-background="new -3722 -2606 32 32"
	 xml:space="preserve">
<g id="Layer_1">
</g>
<g id="Ebene_1">
</g>
<g id="Layer_2">
	<g>
		<g>
			<path fill="#FFFFFF" d="M-3695.473-2598.146c-0.519-0.519-1.361-0.519-1.879,0l-8.787,8.787l-2.291-2.243
				c-0.525-0.513-1.366-0.504-1.88,0.02c-0.513,0.525-0.504,1.367,0.021,1.88l3.23,3.163c0.259,0.253,0.594,0.379,0.93,0.379
				c0.34,0,0.68-0.13,0.94-0.39l9.717-9.717C-3694.954-2596.785-3694.954-2597.626-3695.473-2598.146z"/>
			<path fill="#FFFFFF" d="M-3699.96-2583.837h-12.325v-12.326h11.821l2.252-2.252c-0.166-0.086-0.352-0.141-0.552-0.141h-14.718
				c-0.661,0-1.196,0.536-1.196,1.196v14.719c0,0.66,0.535,1.196,1.196,1.196h14.718c0.661,0,1.197-0.536,1.197-1.196v-10.403
				l-2.393,2.393V-2583.837z"/>
		</g>
		<g opacity="0.4"  a:adobe-blending-mode="multiply">
			
				<path fill="none" stroke="#1A171B" stroke-width="1.5" stroke-linecap="round" stroke-linejoin="round"  a:adobe-blending-mode="normal" d="
				M-3695.473-2598.146c-0.519-0.519-1.361-0.519-1.879,0l-8.787,8.787l-2.291-2.243c-0.525-0.513-1.366-0.504-1.88,0.02
				c-0.513,0.525-0.504,1.367,0.021,1.88l3.23,3.163c0.259,0.253,0.594,0.379,0.93,0.379c0.34,0,0.68-0.13,0.94-0.39l9.717-9.717
				C-3694.954-2596.785-3694.954-2597.626-3695.473-2598.146z"/>
			
				<path fill="none" stroke="#1A171B" stroke-width="1.5" stroke-linecap="round" stroke-linejoin="round"  a:adobe-blending-mode="normal" d="
				M-3699.96-2583.837h-12.325v-12.326h11.821l2.252-2.252c-0.166-0.086-0.352-0.141-0.552-0.141h-14.718
				c-0.661,0-1.196,0.536-1.196,1.196v14.719c0,0.66,0.535,1.196,1.196,1.196h14.718c0.661,0,1.197-0.536,1.197-1.196v-10.403
				l-2.393,2.393V-2583.837z"/>
		</g>
		<g>
			<path fill="#FFFFFF" d="M-3695.473-2598.146c-0.519-0.519-1.361-0.519-1.879,0l-8.787,8.787l-2.291-2.243
				c-0.525-0.513-1.366-0.504-1.88,0.02c-0.513,0.525-0.504,1.367,0.021,1.88l3.23,3.163c0.259,0.253,0.594,0.379,0.93,0.379
				c0.34,0,0.68-0.13,0.94-0.39l9.717-9.717C-3694.954-2596.785-3694.954-2597.626-3695.473-2598.146z"/>
			<path fill="#FFFFFF" d="M-3699.96-2583.837h-12.325v-12.326h11.821l2.252-2.252c-0.166-0.086-0.352-0.141-0.552-0.141h-14.718
				c-0.661,0-1.196,0.536-1.196,1.196v14.719c0,0.66,0.535,1.196,1.196,1.196h14.718c0.661,0,1.197-0.536,1.197-1.196v-10.403
				l-2.393,2.393V-2583.837z"/>
		</g>
		<g>
			<path fill="none" stroke="#1A171B" stroke-width="0.2" stroke-linecap="round" stroke-linejoin="round" d="M-3695.473-2598.146
				c-0.519-0.519-1.361-0.519-1.879,0l-8.787,8.787l-2.291-2.243c-0.525-0.513-1.366-0.504-1.88,0.02
				c-0.513,0.525-0.504,1.367,0.021,1.88l3.23,3.163c0.259,0.253,0.594,0.379,0.93,0.379c0.34,0,0.68-0.13,0.94-0.39l9.717-9.717
				C-3694.954-2596.785-3694.954-2597.626-3695.473-2598.146z"/>
			<path fill="none" stroke="#1A171B" stroke-width="0.2" stroke-linecap="round" stroke-linejoin="round" d="M-3699.96-2583.837
				h-12.325v-12.326h11.821l2.252-2.252c-0.166-0.086-0.352-0.141-0.552-0.141h-14.718c-0.661,0-1.196,0.536-1.196,1.196v14.719
				c0,0.66,0.535,1.196,1.196,1.196h14.718c0.661,0,1.197-0.536,1.197-1.196v-10.403l-2.393,2.393V-2583.837z"/>
		</g>
	</g>
</g>
</svg>
