<?xml version="1.0" encoding="utf-8"?>
<!-- Generator: Adobe Illustrator 15.0.2, SVG Export Plug-In . SVG Version: 6.00 Build 0)  -->
<!DOCTYPE svg PUBLIC "-//W3C//DTD SVG 1.1//EN" "http://www.w3.org/Graphics/SVG/1.1/DTD/svg11.dtd">
<svg version="1.1" id="Layer_1" xmlns="http://www.w3.org/2000/svg" xmlns:xlink="http://www.w3.org/1999/xlink" x="0px" y="0px"
	 width="32px" height="32px" viewBox="0 0 32 32" enable-background="new 0 0 32 32" xml:space="preserve">
<g transform="translate(16,16) scale(1.1) translate(-16,-16)" opacity="0.4">
	<path stroke="#3C3C3C" stroke-width="1.5" d="M21.132,19.439L17.693,16l3.439-3.44c0.468-0.467,0.468-1.226,0.001-1.693
		c-0.467-0.467-1.225-0.467-1.692,0.001l-3.44,3.44l-3.441-3.441c-0.468-0.468-1.225-0.467-1.693,0
		c-0.467,0.467-0.467,1.225,0,1.692L14.309,16l-3.44,3.44c-0.467,0.466-0.467,1.224,0,1.691c0.467,0.467,1.226,0.467,1.692,0.001
		l3.44-3.44l3.44,3.439c0.468,0.468,1.224,0.467,1.691,0C21.598,20.664,21.6,19.907,21.132,19.439z M24.839,7.161
		c-4.882-4.882-12.796-4.882-17.678,0c-4.881,4.881-4.881,12.796,0,17.678c4.882,4.881,12.796,4.881,17.678,0
		C29.72,19.957,29.721,12.043,24.839,7.161z M16,26.106c-2.59,0-5.171-0.984-7.146-2.959C6.878,21.17,5.895,18.591,5.894,16
		c0-2.591,0.983-5.17,2.959-7.147c1.977-1.976,4.556-2.959,7.148-2.96c2.591,0.001,5.17,0.984,7.147,2.959
		c1.975,1.977,2.957,4.556,2.959,7.147c-0.001,2.592-0.984,5.17-2.96,7.148C21.17,25.123,18.591,26.107,16,26.106z"/>
</g>
<g transform="translate(16,16) scale(1.1) translate(-16,-16)">
	<path fill="#FFFFFF" stroke="#000000" stroke-width="0.2" d="M21.132,19.439L17.693,16l3.439-3.44
		c0.468-0.467,0.468-1.226,0.001-1.693c-0.467-0.467-1.225-0.467-1.692,0.001l-3.44,3.44l-3.441-3.441
		c-0.468-0.468-1.225-0.467-1.693,0c-0.467,0.467-0.467,1.225,0,1.692L14.309,16l-3.44,3.44c-0.467,0.466-0.467,1.224,0,1.691
		c0.467,0.467,1.226,0.467,1.692,0.001l3.44-3.44l3.44,3.439c0.468,0.468,1.224,0.467,1.691,0
		C21.598,20.664,21.6,19.907,21.132,19.439z M24.839,7.161c-4.882-4.882-12.796-4.882-17.678,0c-4.881,4.881-4.881,12.796,0,17.678
		c4.882,4.881,12.796,4.881,17.678,0C29.72,19.957,29.721,12.043,24.839,7.161z M16,26.106c-2.59,0-5.171-0.984-7.146-2.959
		C6.878,21.17,5.895,18.591,5.894,16c0-2.591,0.983-5.17,2.959-7.147c1.977-1.976,4.556-2.959,7.148-2.96
		c2.591,0.001,5.17,0.984,7.147,2.959c1.975,1.977,2.957,4.556,2.959,7.147c-0.001,2.592-0.984,5.17-2.96,7.148
		C21.17,25.123,18.591,26.107,16,26.106z"/>
</g>
</svg>
