<?xml version="1.0" encoding="utf-8"?>
<!-- Generator: Adobe Illustrator 16.0.0, SVG Export Plug-In . SVG Version: 6.00 Build 0)  -->
<!DOCTYPE svg PUBLIC "-//W3C//DTD SVG 1.1//EN" "http://www.w3.org/Graphics/SVG/1.1/DTD/svg11.dtd" [
	<!ENTITY ns_flows "http://ns.adobe.com/Flows/1.0/">
	<!ENTITY ns_extend "http://ns.adobe.com/Extensibility/1.0/">
	<!ENTITY ns_ai "http://ns.adobe.com/AdobeIllustrator/10.0/">
	<!ENTITY ns_graphs "http://ns.adobe.com/Graphs/1.0/">
]>
<svg version="1.1" xmlns:x="&ns_extend;" xmlns:i="&ns_ai;" xmlns:graph="&ns_graphs;"
	 xmlns="http://www.w3.org/2000/svg" xmlns:xlink="http://www.w3.org/1999/xlink" xmlns:a="http://ns.adobe.com/AdobeSVGViewerExtensions/3.0/"
	 x="0px" y="0px" width="32px" height="32px" viewBox="0 0 32 32" enable-background="new 0 0 32 32" xml:space="preserve">
<g id="Layer_1">
</g>
<g id="Layer_2">
	<g>
		<g opacity="0.4"  a:adobe-blending-mode="multiply">
			<path fill="none" stroke="#1A171B" stroke-width="1.5"  a:adobe-blending-mode="normal" d="M29.259,15.999
				c0-7.125-5.796-12.92-12.921-12.92c-7.124,0-12.92,5.795-12.92,12.92c0,7.075,5.72,12.838,12.777,12.915
				c0.04,0.004,0.078,0.007,0.117,0.007c0.013,0,0.024-0.003,0.035-0.003C23.468,28.914,29.259,23.12,29.259,15.999z M4.959,16.754
				h3.634c0.062,1.822,0.337,3.53,0.788,5.06H6.528C5.636,20.312,5.08,18.595,4.959,16.754z M27.719,15.243h-3.687
				c-0.061-1.816-0.333-3.52-0.783-5.044h2.907C27.044,11.695,27.596,13.411,27.719,15.243z M22.52,15.243h-5.425v-5.044h4.543
				C22.135,11.703,22.449,13.422,22.52,15.243z M17.095,8.686V4.69c1.56,0.378,2.958,1.861,3.947,3.995H17.095z M15.583,4.678v4.008
				h-3.999C12.583,6.529,14.001,5.036,15.583,4.678z M15.583,10.199v5.044h-5.476c0.069-1.821,0.382-3.54,0.88-5.044H15.583z
				 M8.593,15.243H4.959c0.119-1.832,0.675-3.548,1.562-5.044h2.857C8.929,11.724,8.654,13.427,8.593,15.243z M10.107,16.754h5.476
				v5.06h-4.592C10.491,20.306,10.177,18.582,10.107,16.754z M15.583,23.326v3.996c-1.578-0.356-2.995-1.846-3.994-3.996H15.583z
				 M17.095,27.31v-3.983h3.941C20.049,25.453,18.651,26.934,17.095,27.31z M17.095,21.813v-5.06h5.425
				c-0.07,1.828-0.385,3.552-0.886,5.06H17.095z M24.032,16.754h3.687c-0.123,1.841-0.679,3.558-1.57,5.06h-2.903
				C23.696,20.284,23.972,18.576,24.032,16.754z M25.085,8.686h-2.359c-0.492-1.212-1.103-2.271-1.809-3.133
				C22.536,6.267,23.963,7.345,25.085,8.686z M11.68,5.592c-0.693,0.854-1.295,1.899-1.778,3.094H7.591
				C8.696,7.367,10.092,6.304,11.68,5.592z M7.604,23.326h2.303c0.481,1.19,1.08,2.229,1.77,3.081
				C10.095,25.695,8.704,24.639,7.604,23.326z M20.919,26.443c0.702-0.857,1.312-1.912,1.802-3.117h2.354
				C23.952,24.66,22.533,25.734,20.919,26.443z"/>
		</g>
		<path fill="#FFFFFF" d="M16.186,29.014C9.094,28.937,3.318,23.098,3.318,15.999c0-7.179,5.841-13.02,13.02-13.02
			c7.18,0,13.021,5.841,13.021,13.02c0,7.175-5.836,13.015-13.011,13.019l-0.035,0.003C16.27,29.021,16.229,29.018,16.186,29.014z
			 M11.747,23.426c0.988,2.061,2.307,3.391,3.736,3.769v-3.769H11.747z M17.194,27.18c1.409-0.396,2.71-1.721,3.684-3.754h-3.684
			V27.18z M22.788,23.426c-0.43,1.044-0.945,1.968-1.535,2.753c1.363-0.66,2.6-1.604,3.604-2.753H22.788z M7.821,23.426
			c0.977,1.12,2.184,2.05,3.52,2.713c-0.579-0.78-1.083-1.69-1.502-2.713H7.821z M5.066,16.854c0.131,1.75,0.651,3.4,1.548,4.909
			l2.634-0.047c-0.435-1.513-0.687-3.147-0.752-4.862H5.066z M26.148,21.714c0.811-1.46,1.33-3.11,1.463-4.86h-3.482
			c-0.064,1.714-0.316,3.347-0.751,4.86H26.148z M21.562,21.714c0.485-1.483,0.779-3.16,0.854-4.86h-5.221v4.86H21.562z
			 M15.483,21.714v-4.86h-5.271c0.074,1.698,0.367,3.375,0.852,4.86H15.483z M27.611,15.143c-0.133-1.726-0.664-3.415-1.541-4.893
			l-2.688,0.046c0.432,1.503,0.683,3.132,0.747,4.846H27.611z M22.415,15.143c-0.074-1.689-0.367-3.36-0.85-4.844h-4.371v4.844
			H22.415z M15.483,15.143v-4.844H11.06c-0.482,1.479-0.774,3.15-0.848,4.844H15.483z M8.496,15.143
			c0.065-1.708,0.317-3.337,0.749-4.844H6.578c-0.863,1.473-1.384,3.145-1.511,4.844H8.496z M24.868,8.585
			c-1.002-1.151-2.242-2.1-3.616-2.768c0.592,0.789,1.109,1.718,1.541,2.768H24.868z M20.885,8.585
			c-0.976-2.039-2.278-3.368-3.69-3.766v3.766H20.885z M15.483,8.585v-3.78c-1.433,0.38-2.753,1.714-3.741,3.78H15.483z
			 M9.834,8.585c0.422-1.03,0.929-1.944,1.51-2.725c-1.339,0.662-2.551,1.596-3.536,2.725H9.834z"/>
		<path fill="#1A171B" d="M16.338,3.079c7.125,0,12.921,5.795,12.921,12.92c0,7.121-5.791,12.915-12.911,12.919
			c-0.011,0-0.022,0.003-0.035,0.003c-0.039,0-0.077-0.003-0.117-0.007c-7.058-0.077-12.777-5.84-12.777-12.915
			C3.418,8.874,9.214,3.079,16.338,3.079 M11.584,8.686h3.999V4.678C14.001,5.036,12.583,6.529,11.584,8.686 M17.095,8.686h3.947
			c-0.989-2.134-2.388-3.617-3.947-3.995V8.686 M22.726,8.686h2.359c-1.122-1.341-2.549-2.419-4.168-3.133
			C21.623,6.415,22.233,7.474,22.726,8.686 M7.591,8.686h2.311c0.483-1.194,1.085-2.24,1.778-3.094
			C10.092,6.304,8.696,7.367,7.591,8.686 M24.032,15.243h3.687c-0.123-1.832-0.675-3.548-1.562-5.044h-2.907
			C23.699,11.724,23.972,13.427,24.032,15.243 M17.095,15.243h5.425c-0.07-1.821-0.385-3.54-0.882-5.044h-4.543V15.243
			 M10.107,15.243h5.476v-5.044h-4.596C10.489,11.703,10.177,13.422,10.107,15.243 M4.959,15.243h3.634
			c0.062-1.816,0.336-3.52,0.785-5.044H6.521C5.634,11.695,5.078,13.411,4.959,15.243 M23.245,21.813h2.903
			c0.892-1.502,1.447-3.219,1.57-5.06h-3.687C23.972,18.576,23.696,20.284,23.245,21.813 M17.095,21.813h4.539
			c0.501-1.508,0.815-3.231,0.886-5.06h-5.425V21.813 M10.991,21.813h4.592v-5.06h-5.476C10.177,18.582,10.491,20.306,10.991,21.813
			 M6.528,21.813h2.853c-0.451-1.529-0.727-3.237-0.788-5.06H4.959C5.08,18.595,5.636,20.312,6.528,21.813 M20.919,26.443
			c1.614-0.709,3.033-1.783,4.155-3.117h-2.354C22.23,24.531,21.621,25.586,20.919,26.443 M17.095,27.31
			c1.557-0.376,2.954-1.856,3.941-3.983h-3.941V27.31 M15.583,27.322v-3.996h-3.994C12.588,25.477,14.005,26.966,15.583,27.322
			 M11.676,26.407c-0.689-0.852-1.288-1.891-1.77-3.081H7.604C8.704,24.639,10.095,25.695,11.676,26.407 M16.338,2.879
			c-7.234,0-13.12,5.886-13.12,13.12c0,7.153,5.821,13.037,12.976,13.115c0.029,0.003,0.074,0.007,0.119,0.007
			c7.265-0.007,13.146-5.893,13.146-13.122C29.459,8.765,23.573,2.879,16.338,2.879L16.338,2.879z M11.901,8.485
			c0.937-1.897,2.159-3.142,3.481-3.547v3.547H11.901L11.901,8.485z M17.295,8.485V4.955c1.302,0.422,2.505,1.66,3.43,3.531H17.295
			L17.295,8.485z M22.859,8.485c-0.369-0.888-0.8-1.688-1.286-2.392c1.151,0.612,2.197,1.426,3.072,2.392H22.859L22.859,8.485z
			 M8.031,8.485c0.856-0.943,1.875-1.741,2.991-2.346c-0.474,0.693-0.895,1.479-1.255,2.346H8.031L8.031,8.485z M23.515,10.399
			h2.527c0.816,1.41,1.319,3.009,1.461,4.644h-3.278C24.156,13.405,23.918,11.846,23.515,10.399L23.515,10.399z M17.295,10.399
			h4.197c0.457,1.427,0.738,3.025,0.818,4.644h-5.016V10.399L17.295,10.399z M11.132,10.399h4.25v4.644h-5.066
			C10.396,13.421,10.676,11.823,11.132,10.399L11.132,10.399z M6.635,10.399h2.478c-0.404,1.45-0.644,3.01-0.712,4.644H5.174
			C5.312,13.415,5.815,11.816,6.635,10.399L6.635,10.399z M24.225,16.954h3.278c-0.142,1.656-0.635,3.223-1.469,4.659h-2.523
			C23.917,20.157,24.157,18.592,24.225,16.954L24.225,16.954z M17.295,16.954h5.016c-0.08,1.629-0.362,3.232-0.822,4.659h-4.193
			V16.954L17.295,16.954z M10.316,16.954h5.066v4.659h-4.247C10.677,20.185,10.396,18.581,10.316,16.954L10.316,16.954z
			 M5.175,16.954H8.4c0.069,1.639,0.309,3.204,0.715,4.659H6.643C5.808,20.176,5.314,18.61,5.175,16.954L5.175,16.954z
			 M22.854,23.526h1.779c-0.876,0.962-1.917,1.771-3.059,2.377C22.059,25.204,22.487,24.408,22.854,23.526L22.854,23.526z
			 M17.295,23.526h3.424c-0.923,1.865-2.125,3.099-3.424,3.52V23.526L17.295,23.526z M11.907,23.526h3.476v3.536
			C14.063,26.658,12.843,25.418,11.907,23.526L11.907,23.526z M8.043,23.526h1.729c0.357,0.86,0.774,1.642,1.247,2.332
			C9.905,25.254,8.893,24.461,8.043,23.526L8.043,23.526z"/>
	</g>
</g>
</svg>
