<?xml version="1.0" encoding="utf-8"?>
<!-- Garden Gnome Software - Skin Buttons -->
<!DOCTYPE svg PUBLIC "-//W3C//DTD SVG 1.1 Basic//EN" "http://www.w3.org/Graphics/SVG/1.1/DTD/svg11-basic.dtd">
<svg version="1.1" baseProfile="basic" id="Layer_1" xmlns="http://www.w3.org/2000/svg" xmlns:xlink="http://www.w3.org/1999/xlink"
			x="0px" y="0px" width="32px" height="32px" viewBox="0 0 32 32" xml:space="preserve">
	<g opacity="0.4" stroke="#3C3C3C" stroke-width="1.5" transform="translate(16,16) scale(1.1) translate(-16,-16)">
	<path d="M13.712,13.409c1.005,0,1.82-0.815,1.82-1.821c0-1.005-0.815-1.821-1.82-1.821
		c-1.006,0-1.821,0.815-1.821,1.821C11.892,12.594,12.707,13.409,13.712,13.409z M28.304,7.319
		c-0.125-0.125-0.297-0.196-0.473-0.196H4.169c-0.176,0-0.349,0.071-0.474,0.196C3.571,7.444,3.5,7.617,3.5,7.793v16.414
		c0,0.176,0.071,0.348,0.196,0.473c0.125,0.125,0.297,0.197,0.473,0.197h23.662c0.176,0,0.348-0.072,0.473-0.197
		s0.196-0.297,0.196-0.473V7.793C28.5,7.617,28.429,7.444,28.304,7.319z M4.839,8.462H27.16l0.001,7.184
		c-0.557-0.378-1.29-0.875-2.095-1.421c-1.001-0.676-2.254-0.986-3.503-0.989c-1.266,0.002-2.54,0.321-3.56,1.009l-3.575,2.426
		c-0.329-0.223-0.813-0.552-1.353-0.918c-0.514-0.344-1.129-0.466-1.774-0.469c-1.156,0.004-2.454,0.407-3.558,1.15l-2.905,1.971
		V8.462z M4.839,23.537v-3.512l3.658-2.482c0.867-0.594,1.972-0.923,2.805-0.919c0.466-0.002,0.831,0.103,1.022,0.238
		c0.333,0.226,0.645,0.437,0.913,0.619l-3.869,2.627c-0.306,0.207-0.386,0.623-0.179,0.93c0.13,0.189,0.34,0.293,0.555,0.293
		c0.129,0,0.26-0.037,0.375-0.115l8.638-5.861c0.734-0.502,1.77-0.78,2.807-0.778c1.023-0.002,2.036,0.269,2.751,0.757
		c1.258,0.853,2.346,1.591,2.847,1.931v6.273H4.839z"/>
	</g>
	<g fill="#FFFFFF" stroke="#000000" stroke-width="0.2" transform="translate(16,16) scale(1.1) translate(-16,-16)">
	<path d="M13.712,13.409c1.005,0,1.82-0.815,1.82-1.821c0-1.005-0.815-1.821-1.82-1.821
		c-1.006,0-1.821,0.815-1.821,1.821C11.892,12.594,12.707,13.409,13.712,13.409z M28.304,7.319
		c-0.125-0.125-0.297-0.196-0.473-0.196H4.169c-0.176,0-0.349,0.071-0.474,0.196C3.571,7.444,3.5,7.617,3.5,7.793v16.414
		c0,0.176,0.071,0.348,0.196,0.473c0.125,0.125,0.297,0.197,0.473,0.197h23.662c0.176,0,0.348-0.072,0.473-0.197
		s0.196-0.297,0.196-0.473V7.793C28.5,7.617,28.429,7.444,28.304,7.319z M4.839,8.462H27.16l0.001,7.184
		c-0.557-0.378-1.29-0.875-2.095-1.421c-1.001-0.676-2.254-0.986-3.503-0.989c-1.266,0.002-2.54,0.321-3.56,1.009l-3.575,2.426
		c-0.329-0.223-0.813-0.552-1.353-0.918c-0.514-0.344-1.129-0.466-1.774-0.469c-1.156,0.004-2.454,0.407-3.558,1.15l-2.905,1.971
		V8.462z M4.839,23.537v-3.512l3.658-2.482c0.867-0.594,1.972-0.923,2.805-0.919c0.466-0.002,0.831,0.103,1.022,0.238
		c0.333,0.226,0.645,0.437,0.913,0.619l-3.869,2.627c-0.306,0.207-0.386,0.623-0.179,0.93c0.13,0.189,0.34,0.293,0.555,0.293
		c0.129,0,0.26-0.037,0.375-0.115l8.638-5.861c0.734-0.502,1.77-0.78,2.807-0.778c1.023-0.002,2.036,0.269,2.751,0.757
		c1.258,0.853,2.346,1.591,2.847,1.931v6.273H4.839z"/>
	</g>
</svg>