<?xml version="1.0" encoding="utf-8"?>
<!-- Generator: Adobe Illustrator 16.0.0, SVG Export Plug-In . SVG Version: 6.00 Build 0)  -->
<!DOCTYPE svg PUBLIC "-//W3C//DTD SVG 1.1//EN" "http://www.w3.org/Graphics/SVG/1.1/DTD/svg11.dtd" [
	<!ENTITY ns_flows "http://ns.adobe.com/Flows/1.0/">
	<!ENTITY ns_extend "http://ns.adobe.com/Extensibility/1.0/">
	<!ENTITY ns_ai "http://ns.adobe.com/AdobeIllustrator/10.0/">
	<!ENTITY ns_graphs "http://ns.adobe.com/Graphs/1.0/">
]>
<svg version="1.1" xmlns:x="&ns_extend;" xmlns:i="&ns_ai;" xmlns:graph="&ns_graphs;"
	 xmlns="http://www.w3.org/2000/svg" xmlns:xlink="http://www.w3.org/1999/xlink" xmlns:a="http://ns.adobe.com/AdobeSVGViewerExtensions/3.0/"
	 x="0px" y="0px" width="32px" height="32px" viewBox="0 0 32 32" enable-background="new 0 0 32 32" xml:space="preserve">
<g id="Layer_1">
</g>
<g id="Layer_2">
	<g>
		<g opacity="0.4"  a:adobe-blending-mode="multiply">
			<path fill="none" stroke="#1A171B" stroke-width="1.5"  a:adobe-blending-mode="normal" d="M28.084,16
				c0-6.477-5.27-11.746-11.746-11.746C9.861,4.254,4.592,9.522,4.592,16c0,6.432,5.2,11.67,11.615,11.741
				c0.037,0.004,0.072,0.006,0.107,0.006c0.012,0,0.022-0.002,0.032-0.002C22.819,27.74,28.084,22.473,28.084,16z M5.993,16.686
				h3.304c0.056,1.656,0.306,3.209,0.716,4.6H7.42C6.608,19.92,6.103,18.359,5.993,16.686z M26.684,15.312h-3.352
				c-0.055-1.651-0.303-3.2-0.712-4.586h2.644C26.07,12.086,26.572,13.646,26.684,15.312z M21.957,15.312h-4.932v-4.586h4.13
				C21.607,12.094,21.894,13.657,21.957,15.312z M17.025,9.351V5.719c1.418,0.343,2.689,1.692,3.589,3.632H17.025z M15.651,5.707
				v3.644h-3.635C12.924,7.391,14.213,6.033,15.651,5.707z M15.651,10.727v4.586h-4.977c0.063-1.656,0.347-3.219,0.8-4.586H15.651z
				 M9.297,15.312H5.993c0.108-1.666,0.614-3.226,1.42-4.586h2.598C9.602,12.113,9.353,13.661,9.297,15.312z M10.674,16.686h4.977
				v4.6h-4.174C11.022,19.914,10.737,18.348,10.674,16.686z M15.651,22.66v3.633c-1.435-0.324-2.722-1.678-3.63-3.633H15.651z
				 M17.025,26.281V22.66h3.583C19.711,24.594,18.44,25.939,17.025,26.281z M17.025,21.285v-4.6h4.932
				c-0.063,1.662-0.35,3.229-0.805,4.6H17.025z M23.332,16.686h3.352c-0.111,1.674-0.617,3.234-1.428,4.6h-2.639
				C23.027,19.895,23.277,18.342,23.332,16.686z M24.289,9.351h-2.145c-0.447-1.102-1.002-2.064-1.645-2.848
				C21.973,7.152,23.27,8.132,24.289,9.351z M12.103,6.538c-0.63,0.776-1.177,1.727-1.616,2.813H8.385
				C9.391,8.152,10.659,7.186,12.103,6.538z M8.397,22.66h2.094c0.438,1.082,0.981,2.027,1.609,2.801
				C10.662,24.814,9.398,23.854,8.397,22.66z M20.502,25.494c0.639-0.779,1.192-1.738,1.638-2.834h2.14
				C23.26,23.873,21.97,24.85,20.502,25.494z"/>
		</g>
		<path fill="#FFFFFF" d="M16.197,27.84C9.747,27.77,4.492,22.458,4.492,16c0-6.532,5.314-11.846,11.846-11.846
			c6.532,0,11.846,5.314,11.846,11.846c0,6.527-5.31,11.84-11.837,11.844l-0.032,0.002C16.276,27.846,16.237,27.844,16.197,27.84z
			 M12.178,22.76c0.894,1.857,2.083,3.059,3.373,3.405V22.76H12.178z M17.125,26.151c1.271-0.362,2.444-1.559,3.325-3.392h-3.325
			V26.151z M22.207,22.76c-0.385,0.935-0.846,1.763-1.371,2.47c1.219-0.597,2.325-1.442,3.226-2.47H22.207z M8.614,22.76
			c0.878,1.002,1.958,1.835,3.151,2.432c-0.515-0.699-0.965-1.515-1.342-2.432H8.614z M6.1,16.785
			c0.121,1.586,0.593,3.082,1.406,4.449l2.375-0.047C9.488,19.816,9.26,18.337,9.2,16.785H6.1z M25.256,21.186
			c0.728-1.32,1.199-2.815,1.32-4.4h-3.147c-0.059,1.551-0.286,3.029-0.679,4.4H25.256z M21.08,21.186
			c0.438-1.346,0.705-2.863,0.772-4.4h-4.728v4.4H21.08z M15.551,21.186v-4.4h-4.773c0.067,1.537,0.333,3.055,0.771,4.4H15.551z
			 M26.576,15.212c-0.121-1.563-0.604-3.095-1.398-4.435l-2.425,0.047c0.39,1.363,0.617,2.838,0.676,4.388H26.576z M21.853,15.212
			c-0.067-1.529-0.333-3.042-0.77-4.386h-3.958v4.386H21.853z M15.551,15.212v-4.386h-4.005c-0.436,1.34-0.701,2.853-0.768,4.386
			H15.551z M9.2,15.212c0.06-1.547,0.287-3.021,0.677-4.386H7.47c-0.781,1.335-1.253,2.848-1.37,4.386H9.2z M24.072,9.251
			c-0.899-1.029-2.009-1.88-3.237-2.482c0.527,0.709,0.99,1.542,1.377,2.482H24.072z M20.456,9.251
			c-0.882-1.838-2.058-3.039-3.331-3.402v3.402H20.456z M15.551,9.251V5.835c-1.292,0.348-2.483,1.553-3.377,3.416H15.551z
			 M10.419,9.251c0.378-0.921,0.831-1.742,1.349-2.444c-1.197,0.597-2.281,1.434-3.166,2.444H10.419z"/>
		<path fill="#1A171B" d="M16.338,4.254c6.477,0,11.746,5.269,11.746,11.746c0,6.473-5.265,11.741-11.737,11.745
			c-0.01,0-0.021,0.002-0.032,0.002c-0.035,0-0.07-0.002-0.107-0.006C9.792,27.67,4.592,22.432,4.592,16
			C4.592,9.522,9.861,4.254,16.338,4.254 M12.016,9.351h3.635V5.707C14.213,6.033,12.924,7.391,12.016,9.351 M17.025,9.351h3.589
			c-0.899-1.94-2.171-3.289-3.589-3.632V9.351 M22.145,9.351h2.145c-1.02-1.219-2.316-2.199-3.789-2.848
			C21.143,7.287,21.697,8.249,22.145,9.351 M8.385,9.351h2.101c0.439-1.086,0.986-2.037,1.616-2.813
			C10.659,7.186,9.391,8.152,8.385,9.351 M23.332,15.312h3.352c-0.111-1.666-0.613-3.226-1.42-4.586H22.62
			C23.029,12.113,23.277,13.661,23.332,15.312 M17.025,15.312h4.932c-0.063-1.656-0.35-3.219-0.802-4.586h-4.13V15.312
			 M10.674,15.312h4.977v-4.586h-4.177C11.021,12.094,10.737,13.657,10.674,15.312 M5.993,15.312h3.304
			c0.056-1.651,0.305-3.2,0.713-4.586H7.413C6.607,12.086,6.101,13.646,5.993,15.312 M22.617,21.285h2.639
			c0.811-1.365,1.316-2.926,1.428-4.6h-3.352C23.277,18.342,23.027,19.895,22.617,21.285 M17.025,21.285h4.127
			c0.455-1.371,0.741-2.938,0.805-4.6h-4.932V21.285 M11.477,21.285h4.174v-4.6h-4.977C10.737,18.348,11.022,19.914,11.477,21.285
			 M7.42,21.285h2.593c-0.41-1.391-0.661-2.943-0.716-4.6H5.993C6.103,18.359,6.608,19.92,7.42,21.285 M20.502,25.494
			c1.468-0.645,2.758-1.621,3.777-2.834h-2.14C21.694,23.756,21.141,24.715,20.502,25.494 M17.025,26.281
			c1.415-0.342,2.686-1.688,3.583-3.621h-3.583V26.281 M15.651,26.293V22.66h-3.63C12.929,24.615,14.216,25.969,15.651,26.293
			 M12.1,25.461c-0.627-0.773-1.171-1.719-1.609-2.801H8.397C9.398,23.854,10.662,24.814,12.1,25.461 M16.338,4.054
			C9.751,4.054,4.392,9.413,4.392,16c0,6.513,5.299,11.87,11.813,11.941c0.025,0.003,0.067,0.006,0.109,0.006
			c6.614-0.006,11.97-5.364,11.97-11.947C28.284,9.413,22.925,4.054,16.338,4.054L16.338,4.054z M12.334,9.151
			c0.842-1.694,1.935-2.81,3.117-3.183v3.183H12.334L12.334,9.151z M17.226,9.151V5.984c1.163,0.387,2.239,1.497,3.07,3.167H17.226
			L17.226,9.151z M22.278,9.151c-0.324-0.778-0.701-1.483-1.124-2.104c1.008,0.545,1.924,1.26,2.694,2.104H22.278L22.278,9.151z
			 M8.826,9.151c0.754-0.824,1.646-1.525,2.622-2.062c-0.413,0.612-0.779,1.303-1.096,2.062H8.826L8.826,9.151z M22.886,10.927
			h2.264c0.734,1.272,1.188,2.713,1.318,4.186h-2.943C23.462,13.639,23.248,12.232,22.886,10.927L22.886,10.927z M17.226,10.927
			h3.784c0.411,1.288,0.665,2.728,0.738,4.186h-4.522V10.927L17.226,10.927z M11.619,10.927h3.832v4.186h-4.568
			C10.956,13.65,11.209,12.21,11.619,10.927L11.619,10.927z M7.527,10.927h2.218c-0.362,1.308-0.578,2.713-0.641,4.186H6.208
			C6.336,13.646,6.789,12.205,7.527,10.927L7.527,10.927z M23.524,16.886h2.943c-0.13,1.491-0.575,2.903-1.326,4.199h-2.259
			C23.247,19.771,23.462,18.361,23.524,16.886L23.524,16.886z M17.226,16.886h4.522c-0.073,1.466-0.328,2.91-0.741,4.199h-3.781
			V16.886L17.226,16.886z M10.883,16.886h4.568v4.199h-3.829C11.209,19.796,10.956,18.352,10.883,16.886L10.883,16.886z
			 M6.208,16.886h2.896c0.063,1.476,0.279,2.886,0.644,4.199H7.534C6.783,19.789,6.337,18.378,6.208,16.886L6.208,16.886z
			 M22.273,22.86h1.564c-0.771,0.841-1.684,1.552-2.683,2.092C21.576,24.333,21.951,23.633,22.273,22.86L22.273,22.86z
			 M17.226,22.86h3.064c-0.829,1.664-1.903,2.771-3.064,3.155V22.86L17.226,22.86z M12.339,22.86h3.112v3.172
			C14.271,25.66,13.181,24.549,12.339,22.86L12.339,22.86z M8.838,22.86h1.518c0.314,0.755,0.679,1.44,1.088,2.05
			C10.473,24.374,9.587,23.678,8.838,22.86L8.838,22.86z"/>
	</g>
</g>
</svg>
