<?xml version="1.0" encoding="utf-8"?>
<!-- Generator: Adobe Illustrator 15.0.2, SVG Export Plug-In . SVG Version: 6.00 Build 0)  -->
<!DOCTYPE svg PUBLIC "-//W3C//DTD SVG 1.1//EN" "http://www.w3.org/Graphics/SVG/1.1/DTD/svg11.dtd">
<svg version="1.1" id="Layer_1" xmlns="http://www.w3.org/2000/svg" xmlns:xlink="http://www.w3.org/1999/xlink" x="0px" y="0px"
	 width="32px" height="32px" viewBox="0 0 32 32" enable-background="new 0 0 32 32" xml:space="preserve">
<g opacity="0.4">
	<path stroke="#3C3C3C" stroke-width="1.5" d="M21.132,19.439L17.692,16l3.44-3.44c0.468-0.467,0.468-1.225,0-1.693
		c-0.467-0.467-1.225-0.467-1.691,0.001L16,14.308l-3.441-3.441c-0.467-0.467-1.224-0.467-1.691,0.001
		c-0.467,0.467-0.467,1.224,0,1.69L14.309,16l-3.44,3.44c-0.467,0.467-0.467,1.226,0,1.692c0.467,0.467,1.226,0.467,1.692,0
		l3.44-3.44l3.439,3.439c0.468,0.468,1.225,0.468,1.691,0.001C21.599,20.664,21.6,19.907,21.132,19.439z M24.839,7.161
		c-4.882-4.882-12.796-4.882-17.678,0c-4.881,4.881-4.881,12.795,0,17.678c4.881,4.88,12.796,4.88,17.678,0
		C29.72,19.956,29.72,12.042,24.839,7.161z M16,26.106c-2.589-0.001-5.17-0.985-7.146-2.961S5.895,18.59,5.894,16
		c0-2.591,0.984-5.17,2.96-7.147C10.83,6.878,13.409,5.894,16,5.894c2.591,0.001,5.17,0.984,7.147,2.959
		c1.976,1.977,2.957,4.556,2.96,7.147c-0.001,2.591-0.985,5.169-2.96,7.148C21.169,25.122,18.591,26.106,16,26.106z"/>
</g>
<g>
	<path fill="#FFFFFF" stroke="#000000" stroke-width="0.2" d="M21.132,19.439L17.692,16l3.44-3.44c0.468-0.467,0.468-1.225,0-1.693
		c-0.467-0.467-1.225-0.467-1.691,0.001L16,14.308l-3.441-3.441c-0.467-0.467-1.224-0.467-1.691,0.001
		c-0.467,0.467-0.467,1.224,0,1.69L14.309,16l-3.44,3.44c-0.467,0.467-0.467,1.226,0,1.692c0.467,0.467,1.226,0.467,1.692,0
		l3.44-3.44l3.439,3.439c0.468,0.468,1.225,0.468,1.691,0.001C21.599,20.664,21.6,19.907,21.132,19.439z M24.839,7.161
		c-4.882-4.882-12.796-4.882-17.678,0c-4.881,4.881-4.881,12.795,0,17.678c4.881,4.88,12.796,4.88,17.678,0
		C29.72,19.956,29.72,12.042,24.839,7.161z M16,26.106c-2.589-0.001-5.17-0.985-7.146-2.961S5.895,18.59,5.894,16
		c0-2.591,0.984-5.17,2.96-7.147C10.83,6.878,13.409,5.894,16,5.894c2.591,0.001,5.17,0.984,7.147,2.959
		c1.976,1.977,2.957,4.556,2.96,7.147c-0.001,2.591-0.985,5.169-2.96,7.148C21.169,25.122,18.591,26.106,16,26.106z"/>
</g>
</svg>
