<?xml version="1.0" encoding="utf-8"?>
<!-- Garden Gnome Software - Skin Buttons -->
<!DOCTYPE svg PUBLIC "-//W3C//DTD SVG 1.1 Basic//EN" "http://www.w3.org/Graphics/SVG/1.1/DTD/svg11-basic.dtd">
<svg version="1.1" baseProfile="basic" id="Layer_1" xmlns="http://www.w3.org/2000/svg" xmlns:xlink="http://www.w3.org/1999/xlink"
			x="0px" y="0px" width="32px" height="32px" viewBox="0 0 32 32" xml:space="preserve">
	<g opacity="0.4" stroke="#3C3C3C" stroke-width="1.5" transform="translate(16,16) scale(1.1) translate(-16,-16)">
		<path d="M11.932,22.797c-0.37-0.213-0.598-0.608-0.598-1.035l0,0V10.239c0-0.428,0.228-0.822,0.598-1.036l0,0
			c0.37-0.214,0.826-0.214,1.196,0l0,0l9.978,5.761c0.37,0.214,0.599,0.608,0.599,1.036l0,0c0,0.428-0.229,0.822-0.599,1.036l0,0
			l-9.978,5.761c-0.185,0.107-0.392,0.161-0.598,0.161l0,0C12.324,22.958,12.117,22.904,11.932,22.797L11.932,22.797z
			 M13.727,19.689L20.116,16l-6.39-3.689V19.689L13.727,19.689z"/>
		<path d="M3.5,16L3.5,16c0-6.904,5.596-12.499,12.5-12.5l0,0c6.904,0,12.499,5.596,12.5,12.5l0,0
			c-0.001,6.903-5.596,12.498-12.5,12.5l0,0C9.096,28.498,3.501,22.903,3.5,16L3.5,16z M5.893,16c0,2.795,1.129,5.313,2.961,7.146
			l0,0c1.833,1.831,4.352,2.96,7.147,2.96l0,0c2.794,0,5.314-1.129,7.146-2.96l0,0c1.832-1.833,2.96-4.352,2.961-7.146l0,0
			c-0.001-2.795-1.129-5.313-2.961-7.147l0,0C21.314,7.022,18.795,5.894,16,5.893l0,0c-2.795,0-5.314,1.129-7.147,2.96l0,0
			C7.022,10.687,5.893,13.205,5.893,16L5.893,16L5.893,16z"/>
	</g>
	<g fill="#FFFFFF" stroke="#000000" stroke-width="0.2" transform="translate(16,16) scale(1.1) translate(-16,-16)">
		<path d="M11.932,22.797c-0.37-0.213-0.598-0.608-0.598-1.035l0,0V10.239c0-0.428,0.228-0.822,0.598-1.036l0,0
			c0.37-0.214,0.826-0.214,1.196,0l0,0l9.978,5.761c0.37,0.214,0.599,0.608,0.599,1.036l0,0c0,0.428-0.229,0.822-0.599,1.036l0,0
			l-9.978,5.761c-0.185,0.107-0.392,0.161-0.598,0.161l0,0C12.324,22.958,12.117,22.904,11.932,22.797L11.932,22.797z
			 M13.727,19.689L20.116,16l-6.39-3.689V19.689L13.727,19.689z"/>
		<path d="M3.5,16L3.5,16c0-6.904,5.596-12.499,12.5-12.5l0,0c6.904,0,12.499,5.596,12.5,12.5l0,0
			c-0.001,6.903-5.596,12.498-12.5,12.5l0,0C9.096,28.498,3.501,22.903,3.5,16L3.5,16z M5.893,16c0,2.795,1.129,5.313,2.961,7.146
			l0,0c1.833,1.831,4.352,2.96,7.147,2.96l0,0c2.794,0,5.314-1.129,7.146-2.96l0,0c1.832-1.833,2.96-4.352,2.961-7.146l0,0
			c-0.001-2.795-1.129-5.313-2.961-7.147l0,0C21.314,7.022,18.795,5.894,16,5.893l0,0c-2.795,0-5.314,1.129-7.147,2.96l0,0
			C7.022,10.687,5.893,13.205,5.893,16L5.893,16L5.893,16z"/>
	</g>
</svg>