<?xml version="1.0" encoding="utf-8"?>
<!-- Garden Gnome Software - Skin Buttons -->
<!DOCTYPE svg PUBLIC "-//W3C//DTD SVG 1.1 Basic//EN" "http://www.w3.org/Graphics/SVG/1.1/DTD/svg11-basic.dtd">
<svg version="1.1" baseProfile="basic" id="Layer_1" xmlns="http://www.w3.org/2000/svg" xmlns:xlink="http://www.w3.org/1999/xlink"
			x="0px" y="0px" width="32px" height="32px" viewBox="0 0 32 32" xml:space="preserve">
	<g opacity="0.4" stroke="#3C3C3C" stroke-width="1.5" transform="translate(16,16) scale(1.1) translate(-16,-16)">
	<g>
		<path d="M12.484,17.56v5.784l5.009-2.893L12.484,17.56z M28.178,15.764c-0.199-0.115-0.445-0.115-0.645,0
			l-2.84,1.639v-2.66c0-0.169-0.068-0.335-0.188-0.456s-0.286-0.189-0.456-0.189h-2.07c1.068-0.937,1.744-2.311,1.744-3.844
			c-0.001-2.823-2.289-5.111-5.112-5.112c-2.823,0-5.111,2.289-5.112,5.112c0,1.533,0.675,2.907,1.744,3.844h-3.494
			c0.651-0.704,1.049-1.645,1.049-2.679c0-2.18-1.767-3.946-3.947-3.947c-2.18,0-3.946,1.767-3.947,3.947
			c0,1.034,0.398,1.975,1.049,2.679H4.145c-0.17,0-0.336,0.069-0.456,0.188C3.568,14.408,3.5,14.574,3.5,14.744v11.468
			c0,0.17,0.069,0.336,0.188,0.456c0.12,0.12,0.286,0.188,0.456,0.188h19.904c0.17,0,0.336-0.068,0.456-0.188
			s0.188-0.286,0.188-0.456v-2.659l2.84,1.639c0.1,0.058,0.211,0.086,0.322,0.086s0.223-0.028,0.322-0.086
			c0.199-0.115,0.322-0.328,0.322-0.558v-8.312C28.5,16.092,28.377,15.879,28.178,15.764z M14.788,10.255
			c0.004-2.111,1.712-3.819,3.823-3.823c2.111,0.004,3.819,1.712,3.823,3.823c-0.004,2.111-1.712,3.819-3.823,3.823
			C16.5,14.075,14.792,12.367,14.788,10.255z M8.851,8.763c1.468,0.002,2.655,1.19,2.658,2.658c-0.002,1.467-1.19,2.655-2.658,2.657
			c-1.467-0.002-2.655-1.19-2.657-2.657C6.196,9.953,7.383,8.765,8.851,8.763z M23.404,25.567H4.789V15.388h18.615V25.567z
			 M27.21,23.517l-2.517-1.453v-3.172l2.517-1.452V23.517z"/>
	</g>
	</g>
	<g fill="#FFFFFF" stroke="#000000" stroke-width="0.2" transform="translate(16,16) scale(1.1) translate(-16,-16)">
	<g>
		<path d="M12.484,17.56v5.784l5.009-2.893L12.484,17.56z M28.178,15.764c-0.199-0.115-0.445-0.115-0.645,0
			l-2.84,1.639v-2.66c0-0.169-0.068-0.335-0.188-0.456s-0.286-0.189-0.456-0.189h-2.07c1.068-0.937,1.744-2.311,1.744-3.844
			c-0.001-2.823-2.289-5.111-5.112-5.112c-2.823,0-5.111,2.289-5.112,5.112c0,1.533,0.675,2.907,1.744,3.844h-3.494
			c0.651-0.704,1.049-1.645,1.049-2.679c0-2.18-1.767-3.946-3.947-3.947c-2.18,0-3.946,1.767-3.947,3.947
			c0,1.034,0.398,1.975,1.049,2.679H4.145c-0.17,0-0.336,0.069-0.456,0.188C3.568,14.408,3.5,14.574,3.5,14.744v11.468
			c0,0.17,0.069,0.336,0.188,0.456c0.12,0.12,0.286,0.188,0.456,0.188h19.904c0.17,0,0.336-0.068,0.456-0.188
			s0.188-0.286,0.188-0.456v-2.659l2.84,1.639c0.1,0.058,0.211,0.086,0.322,0.086s0.223-0.028,0.322-0.086
			c0.199-0.115,0.322-0.328,0.322-0.558v-8.312C28.5,16.092,28.377,15.879,28.178,15.764z M14.788,10.255
			c0.004-2.111,1.712-3.819,3.823-3.823c2.111,0.004,3.819,1.712,3.823,3.823c-0.004,2.111-1.712,3.819-3.823,3.823
			C16.5,14.075,14.792,12.367,14.788,10.255z M8.851,8.763c1.468,0.002,2.655,1.19,2.658,2.658c-0.002,1.467-1.19,2.655-2.658,2.657
			c-1.467-0.002-2.655-1.19-2.657-2.657C6.196,9.953,7.383,8.765,8.851,8.763z M23.404,25.567H4.789V15.388h18.615V25.567z
			 M27.21,23.517l-2.517-1.453v-3.172l2.517-1.452V23.517z"/>
	</g>
	</g>
</svg>