<?xml version="1.0" encoding="utf-8"?>
<!-- Garden Gnome Software - Skin Buttons -->
<!DOCTYPE svg PUBLIC "-//W3C//DTD SVG 1.1 Basic//EN" "http://www.w3.org/Graphics/SVG/1.1/DTD/svg11-basic.dtd">
<svg version="1.1" baseProfile="basic" id="Layer_1" xmlns="http://www.w3.org/2000/svg" xmlns:xlink="http://www.w3.org/1999/xlink"
			x="0px" y="0px" width="32px" height="32px" viewBox="0 0 32 32" xml:space="preserve">
	<g opacity="0.4" stroke="#3C3C3C" stroke-width="1.5">
		<path d="M3.5,16C3.5,9.096,9.096,3.501,16,3.5l0,0c6.904,0,12.499,5.596,12.5,12.5l0,0
			c-0.001,6.904-5.596,12.499-12.5,12.5l0,0C9.096,28.499,3.5,22.904,3.5,16L3.5,16z M8.853,23.146
			c1.833,1.831,4.352,2.96,7.147,2.961l0,0c2.794-0.001,5.314-1.13,7.147-2.961l0,0c1.831-1.832,2.96-4.352,2.96-7.146l0,0
			c0-2.795-1.129-5.314-2.96-7.147l0,0C21.314,7.022,18.795,5.894,16,5.893l0,0c-2.795,0-5.314,1.129-7.147,2.96l0,0
			C7.022,10.686,5.894,13.205,5.893,16l0,0h0C5.894,18.795,7.022,21.314,8.853,23.146L8.853,23.146z"/>
		<g>
			<path d="M12.433,20.498v-8.995c0-0.661,0.536-1.196,1.196-1.196l0,0c0.661,0,1.196,0.535,1.196,1.196l0,0v8.995
				c0,0.66-0.536,1.195-1.196,1.195l0,0C12.969,21.693,12.433,21.158,12.433,20.498L12.433,20.498z"/>
			<path d="M17.175,20.498v-8.995c0-0.661,0.535-1.196,1.196-1.196l0,0c0.66,0,1.196,0.535,1.196,1.196l0,0v8.995
				c0,0.66-0.536,1.195-1.196,1.195l0,0C17.71,21.693,17.175,21.158,17.175,20.498L17.175,20.498z"/>
		</g>
	</g>
	<g fill="#FFFFFF" stroke="#000000" stroke-width="0.2">
		<path d="M3.5,16C3.5,9.096,9.096,3.501,16,3.5l0,0c6.904,0,12.499,5.596,12.5,12.5l0,0
			c-0.001,6.904-5.596,12.499-12.5,12.5l0,0C9.096,28.499,3.5,22.904,3.5,16L3.5,16z M8.853,23.146
			c1.833,1.831,4.352,2.96,7.147,2.961l0,0c2.794-0.001,5.314-1.13,7.147-2.961l0,0c1.831-1.832,2.96-4.352,2.96-7.146l0,0
			c0-2.795-1.129-5.314-2.96-7.147l0,0C21.314,7.022,18.795,5.894,16,5.893l0,0c-2.795,0-5.314,1.129-7.147,2.96l0,0
			C7.022,10.686,5.894,13.205,5.893,16l0,0h0C5.894,18.795,7.022,21.314,8.853,23.146L8.853,23.146z"/>
		<g>
			<path d="M12.433,20.498v-8.995c0-0.661,0.536-1.196,1.196-1.196l0,0c0.661,0,1.196,0.535,1.196,1.196l0,0v8.995
				c0,0.66-0.536,1.195-1.196,1.195l0,0C12.969,21.693,12.433,21.158,12.433,20.498L12.433,20.498z"/>
			<path d="M17.175,20.498v-8.995c0-0.661,0.535-1.196,1.196-1.196l0,0c0.66,0,1.196,0.535,1.196,1.196l0,0v8.995
				c0,0.66-0.536,1.195-1.196,1.195l0,0C17.71,21.693,17.175,21.158,17.175,20.498L17.175,20.498z"/>
		</g>
	</g>
</svg>