<?xml version="1.0" encoding="utf-8"?>
<!-- Garden Gnome Software - Skin Buttons -->
<!DOCTYPE svg PUBLIC "-//W3C//DTD SVG 1.1 Basic//EN" "http://www.w3.org/Graphics/SVG/1.1/DTD/svg11-basic.dtd">
<svg version="1.1" baseProfile="basic" id="Layer_1" xmlns="http://www.w3.org/2000/svg" xmlns:xlink="http://www.w3.org/1999/xlink"
			x="0px" y="0px" width="32px" height="32px" viewBox="0 0 32 32" xml:space="preserve">
	<g opacity="0.4" stroke="#3C3C3C" stroke-width="1.5" transform="translate(16,16) scale(1.1) translate(-16,-16)">
		<g>
			<path d="M3.5,16C3.5,9.096,9.096,3.5,16,3.5l0,0c6.903,0,12.499,5.596,12.5,12.5l0,0
				c-0.001,6.903-5.597,12.499-12.5,12.5l0,0C9.096,28.499,3.5,22.903,3.5,16L3.5,16z M8.854,8.853
				C7.022,10.686,5.894,13.205,5.893,16l0,0c0.001,2.795,1.129,5.314,2.961,7.146l0,0c1.832,1.831,4.352,2.96,7.146,2.96l0,0
				c2.795,0,5.314-1.129,7.147-2.96l0,0c1.831-1.832,2.959-4.352,2.96-7.146l0,0c-0.001-2.795-1.129-5.314-2.96-7.147l0,0
				C21.313,7.022,18.795,5.893,16,5.892l0,0C13.205,5.893,10.686,7.022,8.854,8.853L8.854,8.853z"/>
		</g>
		<g>
			<path d="M14.963,10.05V9.521c0-0.661,0.536-1.196,1.197-1.196l0,0c0.66,0,1.196,0.536,1.196,1.196l0,0v0.529
				c0,0.661-0.536,1.196-1.196,1.196l0,0C15.5,11.247,14.963,10.711,14.963,10.05L14.963,10.05z"/>
			<g>
				<path d="M18.532,20.391h-1.176v-6.473c0-0.021-0.005-0.042-0.006-0.063c0-0.014,0.004-0.026,0.004-0.04
					c0-0.661-0.536-1.196-1.196-1.196h-2.226c-0.661,0-1.197,0.536-1.197,1.196c0,0.66,0.536,1.196,1.197,1.196h1.031v5.379h-1.207
					c-0.661,0-1.197,0.535-1.197,1.196c0,0.66,0.536,1.196,1.197,1.196h4.775c0.66,0,1.197-0.536,1.197-1.196
					C19.729,20.926,19.192,20.391,18.532,20.391z"/>
			</g>
		</g>
	</g>
	<g fill="#FFFFFF" stroke="#000000" stroke-width="0.2" transform="translate(16,16) scale(1.1) translate(-16,-16)">
		<g>
			<path d="M3.5,16C3.5,9.096,9.096,3.5,16,3.5l0,0c6.903,0,12.499,5.596,12.5,12.5l0,0
				c-0.001,6.903-5.597,12.499-12.5,12.5l0,0C9.096,28.499,3.5,22.903,3.5,16L3.5,16z M8.854,8.853
				C7.022,10.686,5.894,13.205,5.893,16l0,0c0.001,2.795,1.129,5.314,2.961,7.146l0,0c1.832,1.831,4.352,2.96,7.146,2.96l0,0
				c2.795,0,5.314-1.129,7.147-2.96l0,0c1.831-1.832,2.959-4.352,2.96-7.146l0,0c-0.001-2.795-1.129-5.314-2.96-7.147l0,0
				C21.313,7.022,18.795,5.893,16,5.892l0,0C13.205,5.893,10.686,7.022,8.854,8.853L8.854,8.853z"/>
		</g>
		<g>
			<path d="M14.963,10.05V9.521c0-0.661,0.536-1.196,1.197-1.196l0,0c0.66,0,1.196,0.536,1.196,1.196l0,0v0.529
				c0,0.661-0.536,1.196-1.196,1.196l0,0C15.5,11.247,14.963,10.711,14.963,10.05L14.963,10.05z"/>
			<g>
				<path d="M18.532,20.391h-1.176v-6.473c0-0.021-0.005-0.042-0.006-0.063c0-0.014,0.004-0.026,0.004-0.04
					c0-0.661-0.536-1.196-1.196-1.196h-2.226c-0.661,0-1.197,0.536-1.197,1.196c0,0.66,0.536,1.196,1.197,1.196h1.031v5.379h-1.207
					c-0.661,0-1.197,0.535-1.197,1.196c0,0.66,0.536,1.196,1.197,1.196h4.775c0.66,0,1.197-0.536,1.197-1.196
					C19.729,20.926,19.192,20.391,18.532,20.391z"/>
			</g>
		</g>
	</g>
</svg>