<?xml version="1.0" encoding="utf-8"?>
<!-- Garden Gnome Software - Skin Buttons -->
<!DOCTYPE svg PUBLIC "-//W3C//DTD SVG 1.1 Basic//EN" "http://www.w3.org/Graphics/SVG/1.1/DTD/svg11-basic.dtd">
<svg version="1.1" baseProfile="basic" id="Layer_1" xmlns="http://www.w3.org/2000/svg" xmlns:xlink="http://www.w3.org/1999/xlink"
			x="0px" y="0px" width="32px" height="32px" viewBox="0 0 32 32" xml:space="preserve">
	<g opacity="0.4">
		<path stroke="#3C3C3C" stroke-width="1.5" d="M3.5,16C3.501,9.096,9.096,3.501,16,3.5l0,0C22.903,3.501,28.499,9.096,28.5,16l0,0
			c-0.001,6.904-5.597,12.499-12.5,12.5l0,0C9.096,28.499,3.5,22.904,3.5,16L3.5,16z M5.892,16c0,2.795,1.129,5.314,2.961,7.146l0,0
			c1.833,1.831,4.353,2.96,7.147,2.961l0,0c2.794-0.001,5.314-1.13,7.147-2.961l0,0c1.83-1.832,2.959-4.352,2.96-7.146l0,0
			c-0.001-2.795-1.13-5.314-2.96-7.147l0,0C21.314,7.022,18.794,5.894,16,5.893l0,0c-2.794,0-5.314,1.129-7.147,2.96l0,0
			C7.021,10.686,5.893,13.205,5.892,16L5.892,16L5.892,16z"/>
		<path stroke="#3C3C3C" stroke-width="1.5" d="M17.391,22.686l-6.468-5.827c-0.25-0.226-0.396-0.552-0.396-0.889l0,0c0-0.337,0.146-0.663,0.396-0.889
			l0,0l6.468-5.826c0.491-0.442,1.247-0.403,1.689,0.088l0,0c0.442,0.49,0.402,1.247-0.088,1.689l0,0l-5.481,4.938l5.481,4.938l0,0
			c0.49,0.442,0.53,1.198,0.088,1.689l0,0c-0.236,0.263-0.562,0.396-0.889,0.396l0,0C17.906,22.993,17.62,22.891,17.391,22.686
			L17.391,22.686z"/>
	</g>
	<g>
		<path fill="#FFFFFF" stroke="#000000" stroke-width="0.2" d="M3.5,16C3.501,9.096,9.096,3.501,16,3.5l0,0C22.903,3.501,28.499,9.096,28.5,16l0,0
			c-0.001,6.904-5.597,12.499-12.5,12.5l0,0C9.096,28.499,3.5,22.904,3.5,16L3.5,16z M5.892,16c0,2.795,1.129,5.314,2.961,7.146l0,0
			c1.833,1.831,4.353,2.96,7.147,2.961l0,0c2.794-0.001,5.314-1.13,7.147-2.961l0,0c1.83-1.832,2.959-4.352,2.96-7.146l0,0
			c-0.001-2.795-1.13-5.314-2.96-7.147l0,0C21.314,7.022,18.794,5.894,16,5.893l0,0c-2.794,0-5.314,1.129-7.147,2.96l0,0
			C7.021,10.686,5.893,13.205,5.892,16L5.892,16L5.892,16z"/>
		<path fill="#FFFFFF" stroke="#000000" stroke-width="0.2" d="M17.391,22.686l-6.468-5.827c-0.25-0.226-0.396-0.552-0.396-0.889l0,0c0-0.337,0.146-0.663,0.396-0.889
			l0,0l6.468-5.826c0.491-0.442,1.247-0.403,1.689,0.088l0,0c0.442,0.49,0.402,1.247-0.088,1.689l0,0l-5.481,4.938l5.481,4.938l0,0
			c0.49,0.442,0.53,1.198,0.088,1.689l0,0c-0.236,0.263-0.562,0.396-0.889,0.396l0,0C17.906,22.993,17.62,22.891,17.391,22.686
			L17.391,22.686z"/>
	</g>
</svg>