<?xml version="1.0" encoding="utf-8"?>
<!-- Garden Gnome Software - Skin Buttons -->
<!DOCTYPE svg PUBLIC "-//W3C//DTD SVG 1.1 Basic//EN" "http://www.w3.org/Graphics/SVG/1.1/DTD/svg11-basic.dtd">
<svg version="1.1" baseProfile="basic" id="Layer_1" xmlns="http://www.w3.org/2000/svg" xmlns:xlink="http://www.w3.org/1999/xlink"
			x="0px" y="0px" width="32px" height="32px" viewBox="0 0 32 32" xml:space="preserve">
	<g opacity="0.4" stroke="#3C3C3C" stroke-width="1.5" transform="translate(16,16) scale(1.1) translate(-16,-16)">
		<path d="M16,3.5C9.096,3.5,3.501,9.096,3.5,16c0,6.904,5.596,12.5,12.5,12.5c6.904-0.001,12.5-5.596,12.5-12.5
			C28.499,9.096,22.904,3.5,16,3.5z M23.324,22.962l-0.49-0.896c0.694-1.76,0.565-3.989-0.161-5.722
			c-0.007-0.133-0.036-0.267-0.096-0.395l-2.279-4.948c-0.247-0.533-0.879-0.766-1.412-0.521c-0.533,0.246-0.766,0.877-0.521,1.411
			l1.41,3.058l-0.226,0.095l-3.288-6.007c-0.282-0.515-0.928-0.704-1.443-0.422c-0.515,0.282-0.704,0.928-0.422,1.443l3.184,5.817
			l-0.215,0.09l-3.883-7.094c-0.282-0.516-0.929-0.705-1.443-0.422c-0.516,0.282-0.705,0.928-0.422,1.443l3.78,6.905l-0.263,0.111
			l-1.767-2.082l-2.385-2.811c-0.38-0.448-1.051-0.503-1.499-0.123c-0.448,0.379-0.503,1.051-0.123,1.499l2.385,2.811l2.34,2.759
			l1.129,2.348l-0.226,0.168c-0.054-0.074-0.114-0.145-0.186-0.207l-3.235-2.79c-0.5-0.432-1.255-0.376-1.687,0.124
			c-0.432,0.5-0.376,1.256,0.124,1.687l3.046,2.629l-0.002,0.002c0.034,0.029,0.068,0.056,0.103,0.085l0.087,0.075
			c0.007,0.006,0.015,0.01,0.022,0.016c1.502,1.257,3.061,2.039,4.688,2.068l0.367,0.672c-0.744,0.174-1.519,0.27-2.318,0.27
			c-2.795-0.001-5.314-1.13-7.147-2.961C7.022,21.313,5.894,18.795,5.893,16c0.001-2.794,1.129-5.314,2.961-7.147
			c1.833-1.831,4.352-2.959,7.147-2.96c2.794,0.001,5.314,1.13,7.147,2.96c1.831,1.833,2.96,4.353,2.961,7.147
			C26.107,18.703,25.05,21.146,23.324,22.962z"/>
	</g>
	<g fill="#FFFFFF" stroke="#000000" stroke-width="0.2" transform="translate(16,16) scale(1.1) translate(-16,-16)">
		<path d="M16,3.5C9.096,3.5,3.501,9.096,3.5,16c0,6.904,5.596,12.5,12.5,12.5c6.904-0.001,12.5-5.596,12.5-12.5
			C28.499,9.096,22.904,3.5,16,3.5z M23.324,22.962l-0.49-0.896c0.694-1.76,0.565-3.989-0.161-5.722
			c-0.007-0.133-0.036-0.267-0.096-0.395l-2.279-4.948c-0.247-0.533-0.879-0.766-1.412-0.521c-0.533,0.246-0.766,0.877-0.521,1.411
			l1.41,3.058l-0.226,0.095l-3.288-6.007c-0.282-0.515-0.928-0.704-1.443-0.422c-0.515,0.282-0.704,0.928-0.422,1.443l3.184,5.817
			l-0.215,0.09l-3.883-7.094c-0.282-0.516-0.929-0.705-1.443-0.422c-0.516,0.282-0.705,0.928-0.422,1.443l3.78,6.905l-0.263,0.111
			l-1.767-2.082l-2.385-2.811c-0.38-0.448-1.051-0.503-1.499-0.123c-0.448,0.379-0.503,1.051-0.123,1.499l2.385,2.811l2.34,2.759
			l1.129,2.348l-0.226,0.168c-0.054-0.074-0.114-0.145-0.186-0.207l-3.235-2.79c-0.5-0.432-1.255-0.376-1.687,0.124
			c-0.432,0.5-0.376,1.256,0.124,1.687l3.046,2.629l-0.002,0.002c0.034,0.029,0.068,0.056,0.103,0.085l0.087,0.075
			c0.007,0.006,0.015,0.01,0.022,0.016c1.502,1.257,3.061,2.039,4.688,2.068l0.367,0.672c-0.744,0.174-1.519,0.27-2.318,0.27
			c-2.795-0.001-5.314-1.13-7.147-2.961C7.022,21.313,5.894,18.795,5.893,16c0.001-2.794,1.129-5.314,2.961-7.147
			c1.833-1.831,4.352-2.959,7.147-2.96c2.794,0.001,5.314,1.13,7.147,2.96c1.831,1.833,2.96,4.353,2.961,7.147
			C26.107,18.703,25.05,21.146,23.324,22.962z"/>
	</g>
</svg>