<?xml version="1.0" encoding="utf-8"?>
<!-- Garden Gnome Software - Skin Buttons -->
<!DOCTYPE svg PUBLIC "-//W3C//DTD SVG 1.1 Basic//EN" "http://www.w3.org/Graphics/SVG/1.1/DTD/svg11-basic.dtd">
<svg version="1.1" baseProfile="basic" id="Layer_1" xmlns="http://www.w3.org/2000/svg" xmlns:xlink="http://www.w3.org/1999/xlink"
			x="0px" y="0px" width="32px" height="32px" viewBox="0 0 32 32" xml:space="preserve">
	<g opacity="0.4" stroke="#3C3C3C" stroke-width="1.5" transform="translate(16,16) scale(1.1) translate(-16,-16)">
	<path d="M16,3.5C9.096,3.5,3.5,9.096,3.5,16c0,6.905,5.596,12.5,12.5,12.5c6.904,0,12.5-5.596,12.5-12.5
		C28.5,9.096,22.904,3.5,16,3.5z M23.147,23.147c-1.833,1.831-4.352,2.96-7.147,2.96s-5.314-1.129-7.147-2.96
		c-1.831-1.833-2.96-4.353-2.96-7.148c0-2.795,1.13-5.313,2.96-7.146c1.833-1.831,4.352-2.96,7.147-2.96
		c2.795,0,5.314,1.129,7.147,2.96c1.831,1.833,2.96,4.352,2.961,7.146C26.107,18.795,24.979,21.314,23.147,23.147z M25.113,15.309
		l-2.978-2.682c-0.381-0.344-0.97-0.313-1.313,0.068c-0.344,0.382-0.313,0.97,0.069,1.314h-0.001l1.277,0.928h-5.104V9.833
		l0.927,1.276c0.344,0.381,0.932,0.413,1.313,0.068c0.382-0.344,0.413-0.933,0.069-1.314l-2.683-2.978
		C16.515,6.691,16.263,6.579,16,6.579c-0.263,0-0.516,0.113-0.691,0.308l-2.682,2.978c-0.344,0.381-0.313,0.97,0.068,1.314
		c0.178,0.16,0.401,0.239,0.623,0.239c0.255,0,0.508-0.104,0.692-0.308h0l0.928-1.279v5.106H9.832l1.278-0.928
		c0.381-0.344,0.412-0.932,0.068-1.314s-0.932-0.413-1.313-0.069l-2.978,2.683C6.691,15.484,6.578,15.737,6.578,16
		s0.113,0.515,0.309,0.691l2.978,2.682c0.178,0.16,0.4,0.239,0.622,0.239c0.254,0,0.508-0.104,0.692-0.308
		c0.344-0.382,0.313-0.971-0.068-1.314l-1.277-0.927h5.104v5.105l-0.928-1.278c-0.344-0.382-0.932-0.413-1.314-0.069
		c-0.382,0.344-0.412,0.933-0.068,1.314l2.682,2.978c0.176,0.195,0.429,0.309,0.691,0.309c0.263,0,0.516-0.113,0.692-0.309
		l2.682-2.978c0.344-0.382,0.312-0.971-0.069-1.314s-0.97-0.312-1.313,0.069l-0.927,1.276v-5.104h5.104l-1.277,0.928
		c-0.382,0.343-0.412,0.932-0.068,1.313c0.184,0.204,0.437,0.308,0.691,0.308c0.222,0,0.445-0.079,0.623-0.239l2.977-2.682
		c0.195-0.176,0.309-0.428,0.309-0.691C25.422,15.737,25.309,15.484,25.113,15.309z"/>
	</g>
	<g fill="#FFFFFF" stroke="#000000" stroke-width="0.2" transform="translate(16,16) scale(1.1) translate(-16,-16)">
	<path d="M16,3.5C9.096,3.5,3.5,9.096,3.5,16c0,6.905,5.596,12.5,12.5,12.5c6.904,0,12.5-5.596,12.5-12.5
		C28.5,9.096,22.904,3.5,16,3.5z M23.147,23.147c-1.833,1.831-4.352,2.96-7.147,2.96s-5.314-1.129-7.147-2.96
		c-1.831-1.833-2.96-4.353-2.96-7.148c0-2.795,1.13-5.313,2.96-7.146c1.833-1.831,4.352-2.96,7.147-2.96
		c2.795,0,5.314,1.129,7.147,2.96c1.831,1.833,2.96,4.352,2.961,7.146C26.107,18.795,24.979,21.314,23.147,23.147z M25.113,15.309
		l-2.978-2.682c-0.381-0.344-0.97-0.313-1.313,0.068c-0.344,0.382-0.313,0.97,0.069,1.314h-0.001l1.277,0.928h-5.104V9.833
		l0.927,1.276c0.344,0.381,0.932,0.413,1.313,0.068c0.382-0.344,0.413-0.933,0.069-1.314l-2.683-2.978
		C16.515,6.691,16.263,6.579,16,6.579c-0.263,0-0.516,0.113-0.691,0.308l-2.682,2.978c-0.344,0.381-0.313,0.97,0.068,1.314
		c0.178,0.16,0.401,0.239,0.623,0.239c0.255,0,0.508-0.104,0.692-0.308h0l0.928-1.279v5.106H9.832l1.278-0.928
		c0.381-0.344,0.412-0.932,0.068-1.314s-0.932-0.413-1.313-0.069l-2.978,2.683C6.691,15.484,6.578,15.737,6.578,16
		s0.113,0.515,0.309,0.691l2.978,2.682c0.178,0.16,0.4,0.239,0.622,0.239c0.254,0,0.508-0.104,0.692-0.308
		c0.344-0.382,0.313-0.971-0.068-1.314l-1.277-0.927h5.104v5.105l-0.928-1.278c-0.344-0.382-0.932-0.413-1.314-0.069
		c-0.382,0.344-0.412,0.933-0.068,1.314l2.682,2.978c0.176,0.195,0.429,0.309,0.691,0.309c0.263,0,0.516-0.113,0.692-0.309
		l2.682-2.978c0.344-0.382,0.312-0.971-0.069-1.314s-0.97-0.312-1.313,0.069l-0.927,1.276v-5.104h5.104l-1.277,0.928
		c-0.382,0.343-0.412,0.932-0.068,1.313c0.184,0.204,0.437,0.308,0.691,0.308c0.222,0,0.445-0.079,0.623-0.239l2.977-2.682
		c0.195-0.176,0.309-0.428,0.309-0.691C25.422,15.737,25.309,15.484,25.113,15.309z"/>
	</g>
</svg>