<?xml version="1.0" encoding="utf-8"?>
<!-- Garden Gnome Software - Skin Buttons -->
<!DOCTYPE svg PUBLIC "-//W3C//DTD SVG 1.1 Basic//EN" "http://www.w3.org/Graphics/SVG/1.1/DTD/svg11-basic.dtd">
<svg version="1.1" baseProfile="basic" id="Layer_1" xmlns="http://www.w3.org/2000/svg" xmlns:xlink="http://www.w3.org/1999/xlink"
			x="0px" y="0px" width="32px" height="32px" viewBox="0 0 32 32" xml:space="preserve">
	<g opacity="0.4">
		<path stroke="#3C3C3C" stroke-width="1.5" d="M3.5,16C3.501,9.096,9.096,3.501,16,3.5l0,0C22.904,3.501,28.499,9.096,28.5,16l0,0
			c-0.001,6.904-5.596,12.499-12.5,12.5l0,0C9.096,28.499,3.501,22.904,3.5,16L3.5,16z M8.853,8.853
			C7.022,10.686,5.894,13.205,5.893,16l0,0c0,2.795,1.129,5.314,2.96,7.146l0,0c1.833,1.831,4.353,2.96,7.147,2.961l0,0
			c2.795-0.001,5.314-1.13,7.146-2.961l0,0c1.832-1.832,2.961-4.352,2.961-7.146l0,0c0-2.795-1.129-5.314-2.961-7.147l0,0
			C21.314,7.022,18.795,5.894,16,5.893l0,0C13.206,5.894,10.686,7.022,8.853,8.853L8.853,8.853z"/>
		<path stroke="#3C3C3C" stroke-width="1.5" d="M12.92,22.657c-0.442-0.491-0.403-1.247,0.088-1.689l0,0l5.481-4.938l-5.481-4.937v0
			c-0.491-0.442-0.53-1.199-0.088-1.69l0,0c0.441-0.491,1.198-0.531,1.689-0.088l0,0l6.468,5.826
			c0.251,0.226,0.396,0.551,0.396,0.889l0,0c0,0.337-0.145,0.663-0.396,0.889l0,0l-6.468,5.826c-0.229,0.206-0.515,0.308-0.8,0.308
			l0,0C13.482,23.053,13.156,22.919,12.92,22.657L12.92,22.657z"/>
	</g>
	<g>
		<path fill="#FFFFFF" stroke="#000000" stroke-width="0.2" d="M3.5,16C3.501,9.096,9.096,3.501,16,3.5l0,0C22.904,3.501,28.499,9.096,28.5,16l0,0
			c-0.001,6.904-5.596,12.499-12.5,12.5l0,0C9.096,28.499,3.501,22.904,3.5,16L3.5,16z M8.853,8.853
			C7.022,10.686,5.894,13.205,5.893,16l0,0c0,2.795,1.129,5.314,2.96,7.146l0,0c1.833,1.831,4.353,2.96,7.147,2.961l0,0
			c2.795-0.001,5.314-1.13,7.146-2.961l0,0c1.832-1.832,2.961-4.352,2.961-7.146l0,0c0-2.795-1.129-5.314-2.961-7.147l0,0
			C21.314,7.022,18.795,5.894,16,5.893l0,0C13.206,5.894,10.686,7.022,8.853,8.853L8.853,8.853z"/>
		<path fill="#FFFFFF" stroke="#000000" stroke-width="0.2" d="M12.92,22.657c-0.442-0.491-0.403-1.247,0.088-1.689l0,0l5.481-4.938l-5.481-4.937v0
			c-0.491-0.442-0.53-1.199-0.088-1.69l0,0c0.441-0.491,1.198-0.531,1.689-0.088l0,0l6.468,5.826
			c0.251,0.226,0.396,0.551,0.396,0.889l0,0c0,0.337-0.145,0.663-0.396,0.889l0,0l-6.468,5.826c-0.229,0.206-0.515,0.308-0.8,0.308
			l0,0C13.482,23.053,13.156,22.919,12.92,22.657L12.92,22.657z"/>
	</g>
</svg>