<?xml version="1.0" encoding="utf-8"?>
<!-- Garden Gnome Software - Skin Buttons -->
<!DOCTYPE svg PUBLIC "-//W3C//DTD SVG 1.1 Basic//EN" "http://www.w3.org/Graphics/SVG/1.1/DTD/svg11-basic.dtd">
<svg version="1.1" baseProfile="basic" id="Layer_1" xmlns="http://www.w3.org/2000/svg" xmlns:xlink="http://www.w3.org/1999/xlink"
			x="0px" y="0px" width="32px" height="32px" viewBox="0 0 32 32" xml:space="preserve">
	<g opacity="0.4">
		<path stroke="#3C3C3C" stroke-width="1.5" d="M22.061,14.803h-4.864V9.938c0-0.661-0.536-1.197-1.197-1.197c-0.66,0-1.196,0.536-1.196,1.197v4.865
			H9.938c-0.661,0-1.196,0.536-1.196,1.197c0,0.66,0.536,1.196,1.196,1.196h4.866v4.865c0,0.66,0.536,1.196,1.196,1.196
			c0.661,0,1.197-0.536,1.197-1.196v-4.865h4.864c0.661,0,1.196-0.536,1.196-1.196C23.257,15.339,22.722,14.803,22.061,14.803z
			 M16,3.5C9.096,3.5,3.5,9.096,3.5,16c0,6.903,5.596,12.499,12.5,12.5c6.903-0.001,12.499-5.597,12.5-12.5
			C28.499,9.096,22.903,3.5,16,3.5z M23.146,23.146c-1.832,1.831-4.352,2.96-7.146,2.96s-5.314-1.129-7.146-2.96
			C7.022,21.314,5.894,18.795,5.893,16c0.001-2.795,1.129-5.314,2.961-7.147c1.833-1.831,4.352-2.96,7.146-2.961
			c2.795,0.001,5.313,1.13,7.146,2.961c1.832,1.833,2.96,4.352,2.961,7.147C26.106,18.795,24.979,21.314,23.146,23.146z"/>
	</g>
	<g>
		<path fill="#FFFFFF" stroke="#000000" stroke-width="0.2" d="M22.061,14.803h-4.864V9.938c0-0.661-0.536-1.197-1.197-1.197c-0.66,0-1.196,0.536-1.196,1.197v4.865
			H9.938c-0.661,0-1.196,0.536-1.196,1.197c0,0.66,0.536,1.196,1.196,1.196h4.866v4.865c0,0.66,0.536,1.196,1.196,1.196
			c0.661,0,1.197-0.536,1.197-1.196v-4.865h4.864c0.661,0,1.196-0.536,1.196-1.196C23.257,15.339,22.722,14.803,22.061,14.803z
			 M16,3.5C9.096,3.5,3.5,9.096,3.5,16c0,6.903,5.596,12.499,12.5,12.5c6.903-0.001,12.499-5.597,12.5-12.5
			C28.499,9.096,22.903,3.5,16,3.5z M23.146,23.146c-1.832,1.831-4.352,2.96-7.146,2.96s-5.314-1.129-7.146-2.96
			C7.022,21.314,5.894,18.795,5.893,16c0.001-2.795,1.129-5.314,2.961-7.147c1.833-1.831,4.352-2.96,7.146-2.961
			c2.795,0.001,5.313,1.13,7.146,2.961c1.832,1.833,2.96,4.352,2.961,7.147C26.106,18.795,24.979,21.314,23.146,23.146z"/>
	</g>
</svg>